<?xml version="1.0" encoding="UTF-8"?>
<!DOCTYPE svg PUBLIC "-//W3C//DTD SVG 1.1//EN" "http://www.w3.org/Graphics/SVG/1.1/DTD/svg11.dtd">
<svg xmlns="http://www.w3.org/2000/svg" version="1.1" width="772px" height="240px" style="shape-rendering:geometricPrecision; text-rendering:geometricPrecision; image-rendering:optimizeQuality; fill-rule:evenodd; clip-rule:evenodd" xmlns:xlink="http://www.w3.org/1999/xlink">
<g><path style="opacity:1" fill="#fe840a" d="M -0.5,-0.5 C 256.833,-0.5 514.167,-0.5 771.5,-0.5C 771.5,79.5 771.5,159.5 771.5,239.5C 730.167,239.5 688.833,239.5 647.5,239.5C 647.5,239.167 647.5,238.833 647.5,238.5C 647.833,238.5 648.167,238.5 648.5,238.5C 651.167,238.5 653.833,238.5 656.5,238.5C 658.833,238.5 661.167,238.5 663.5,238.5C 664.5,238.5 665.5,238.5 666.5,238.5C 667.497,238.53 668.164,238.03 668.5,237C 666.383,233.435 664.883,229.602 664,225.5C 663.292,224.619 662.458,223.953 661.5,223.5C 661.5,222.833 661.167,222.5 660.5,222.5C 652.586,210.342 646.586,197.342 642.5,183.5C 642.5,178.167 642.5,172.833 642.5,167.5C 645.85,167.665 649.183,167.498 652.5,167C 653.056,166.617 653.389,166.117 653.5,165.5C 655.371,165.141 656.871,164.141 658,162.5C 658.667,131.5 658.667,100.5 658,69.5C 657.583,68.244 656.75,67.5774 655.5,67.5C 655.5,66.8333 655.5,66.1667 655.5,65.5C 657.39,65.7035 658.89,65.0368 660,63.5C 664.658,53.5156 669.824,43.8489 675.5,34.5C 675.376,33.8933 675.043,33.56 674.5,33.5C 674.027,32.0937 673.027,31.427 671.5,31.5C 608.336,30.5009 545.002,30.1676 481.5,30.5C 481.232,32.099 481.566,33.4324 482.5,34.5C 494.248,45.2511 506.582,55.2511 519.5,64.5C 497.81,73.8444 476.477,84.0111 455.5,95C 452.883,95.8215 450.216,96.3215 447.5,96.5C 447.5,97.8333 447.5,99.1667 447.5,100.5C 469.841,100.431 492.174,100.764 514.5,101.5C 514.333,122.169 514.5,142.836 515,163.5C 515.667,164.167 516.333,164.833 517,165.5C 517.689,171.882 517.355,178.215 516,184.5C 512.242,190.421 509.242,196.754 507,203.5C 497.01,213.496 492.176,225.496 492.5,239.5C 328.167,239.5 163.833,239.5 -0.5,239.5C -0.5,159.5 -0.5,79.5 -0.5,-0.5 Z"/></g>
<g><path style="opacity:1" fill="#f8dcbf" d="M 671.5,31.5 C 614.331,31.1677 557.331,31.501 500.5,32.5C 500.167,32.5 499.833,32.5 499.5,32.5C 494.156,32.334 488.823,32.5006 483.5,33C 482.944,33.3826 482.611,33.8826 482.5,34.5C 481.566,33.4324 481.232,32.099 481.5,30.5C 545.002,30.1676 608.336,30.5009 671.5,31.5 Z"/></g>
<g><path style="opacity:1" fill="#eceef0" d="M 500.5,32.5 C 557.331,31.501 614.331,31.1677 671.5,31.5C 673.027,31.427 674.027,32.0937 674.5,33.5C 669.476,33.5857 664.142,33.5857 658.5,33.5C 638.86,32.549 619.194,32.2157 599.5,32.5C 566.5,32.5 533.5,32.5 500.5,32.5 Z"/></g>
<g><path style="opacity:1" fill="#110f10" d="M 628.5,33.5 C 636.167,33.5 643.833,33.5 651.5,33.5C 651.5,34.5 651.5,35.5 651.5,36.5C 646.105,36.7335 640.772,36.4002 635.5,35.5C 632.612,36.0102 630.279,35.3435 628.5,33.5 Z"/></g>
<g><path style="opacity:1" fill="#484446" d="M 627.5,33.5 C 627.833,33.5 628.167,33.5 628.5,33.5C 630.279,35.3435 632.612,36.0102 635.5,35.5C 634.833,36.1667 634.167,36.8333 633.5,37.5C 631.167,37.5 628.833,37.5 626.5,37.5C 626.337,39.8568 626.503,42.1902 627,44.5C 629.041,43.5769 631.208,43.2436 633.5,43.5C 632.167,44.1667 630.833,44.8333 629.5,45.5C 627.856,45.7135 626.356,45.3802 625,44.5C 624.503,42.1902 624.337,39.8568 624.5,37.5C 622.167,37.5 619.833,37.5 617.5,37.5C 617.167,46.8333 616.833,46.8333 616.5,37.5C 617.802,34.2525 619.968,33.5859 623,35.5C 625.008,35.6932 626.508,35.0265 627.5,33.5 Z"/></g>
<g><path style="opacity:1" fill="#4c434b" d="M 499.5,32.5 C 496.023,33.3227 492.356,33.8227 488.5,34C 493.334,35.0469 498,36.7135 502.5,39C 501.833,39.3333 501.167,39.6667 500.5,40C 502.493,41.6207 504.493,43.2873 506.5,45C 507.448,45.4828 508.448,45.6495 509.5,45.5C 509.67,46.8221 509.337,47.9887 508.5,49C 510.032,49.6995 511.032,50.8662 511.5,52.5C 512.325,53.3857 513.325,53.719 514.5,53.5C 516.816,56.7971 518.483,60.1304 519.5,63.5C 519.5,63.8333 519.5,64.1667 519.5,64.5C 506.582,55.2511 494.248,45.2511 482.5,34.5C 482.611,33.8826 482.944,33.3826 483.5,33C 488.823,32.5006 494.156,32.334 499.5,32.5 Z"/></g>
<g><path style="opacity:1" fill="#060607" d="M 633.5,37.5 C 633.5,39.5 633.5,41.5 633.5,43.5C 631.208,43.2436 629.041,43.5769 627,44.5C 626.503,42.1902 626.337,39.8568 626.5,37.5C 628.833,37.5 631.167,37.5 633.5,37.5 Z"/></g>
<g><path style="opacity:1" fill="#a6a4b1" d="M 658.5,34.5 C 660.912,34.3305 663.079,34.9972 665,36.5C 667.508,35.1368 670.008,34.8035 672.5,35.5C 669.117,40.6842 666.117,46.0175 663.5,51.5C 662.172,46.893 661.005,42.2264 660,37.5C 659.722,38.4158 659.222,39.0825 658.5,39.5C 658.5,37.8333 658.5,36.1667 658.5,34.5 Z"/></g>
<g><path style="opacity:1" fill="#342b30" d="M 499.5,32.5 C 499.833,32.5 500.167,32.5 500.5,32.5C 533.5,32.5 566.5,32.5 599.5,32.5C 599.5,32.8333 599.5,33.1667 599.5,33.5C 575.158,33.1669 550.824,33.5003 526.5,34.5C 533.041,35.7955 533.041,36.4622 526.5,36.5C 526.5,38.8333 526.5,41.1667 526.5,43.5C 528.833,43.5 531.167,43.5 533.5,43.5C 530.772,44.2052 527.939,44.8719 525,45.5C 524.501,41.5138 524.334,37.5138 524.5,33.5C 522.833,33.5 521.167,33.5 519.5,33.5C 520.334,38.0546 520.667,42.5546 520.5,47C 517.419,52.0026 518.752,54.836 524.5,55.5C 524.335,52.4816 524.502,49.4816 525,46.5C 525.498,49.8168 525.665,53.1501 525.5,56.5C 532.5,56.5 539.5,56.5 546.5,56.5C 541.684,57.3261 536.684,57.8261 531.5,58C 533.044,58.2896 534.377,58.9563 535.5,60C 534.833,60.3333 534.167,60.6667 533.5,61C 535.058,61.21 536.391,61.71 537.5,62.5C 531.536,63.3068 525.536,63.6401 519.5,63.5C 518.483,60.1304 516.816,56.7971 514.5,53.5C 513.325,53.719 512.325,53.3857 511.5,52.5C 511.032,50.8662 510.032,49.6995 508.5,49C 509.337,47.9887 509.67,46.8221 509.5,45.5C 508.448,45.6495 507.448,45.4828 506.5,45C 504.493,43.2873 502.493,41.6207 500.5,40C 501.167,39.6667 501.833,39.3333 502.5,39C 498,36.7135 493.334,35.0469 488.5,34C 492.356,33.8227 496.023,33.3227 499.5,32.5 Z"/></g>
<g><path style="opacity:1" fill="#64626a" d="M 599.5,33.5 C 599.5,33.1667 599.5,32.8333 599.5,32.5C 619.194,32.2157 638.86,32.549 658.5,33.5C 658.5,33.8333 658.5,34.1667 658.5,34.5C 658.5,36.1667 658.5,37.8333 658.5,39.5C 657.673,44.9851 657.173,50.6518 657,56.5C 657.038,50.5022 655.705,44.8355 653,39.5C 652.827,45.3482 652.327,51.0149 651.5,56.5C 651.5,55.5 651.5,54.5 651.5,53.5C 648.615,53.1936 645.948,53.5269 643.5,54.5C 643.167,54.5 642.833,54.5 642.5,54.5C 644.988,52.6122 647.988,51.9455 651.5,52.5C 651.5,50.1667 651.5,47.8333 651.5,45.5C 644.167,45.5 636.833,45.5 629.5,45.5C 630.833,44.8333 632.167,44.1667 633.5,43.5C 633.5,41.5 633.5,39.5 633.5,37.5C 634.167,36.8333 634.833,36.1667 635.5,35.5C 640.772,36.4002 646.105,36.7335 651.5,36.5C 651.5,35.5 651.5,34.5 651.5,33.5C 643.833,33.5 636.167,33.5 628.5,33.5C 628.167,33.5 627.833,33.5 627.5,33.5C 621.5,33.5 615.5,33.5 609.5,33.5C 606.167,33.5 602.833,33.5 599.5,33.5 Z"/></g>
<g><path style="opacity:1" fill="#0c0c0d" d="M 643.5,37.5 C 646.167,37.5 648.833,37.5 651.5,37.5C 651.5,39.8333 651.5,42.1667 651.5,44.5C 648.833,44.5 646.167,44.5 643.5,44.5C 643.5,42.1667 643.5,39.8333 643.5,37.5 Z"/></g>
<g><path style="opacity:1" fill="#100f10" d="M 634.5,37.5 C 637.167,37.5 639.833,37.5 642.5,37.5C 643.512,44.2603 640.846,46.2603 634.5,43.5C 634.5,41.5 634.5,39.5 634.5,37.5 Z"/></g>
<g><path style="opacity:1" fill="#c9c7ce" d="M 663.5,51.5 C 662.286,54.9302 660.786,58.2635 659,61.5C 658.5,54.1742 658.334,46.8409 658.5,39.5C 659.222,39.0825 659.722,38.4158 660,37.5C 661.005,42.2264 662.172,46.893 663.5,51.5 Z"/></g>
<g><path style="opacity:1" fill="#1a1718" d="M 533.5,43.5 C 535.167,43.5 536.833,43.5 538.5,43.5C 539.003,38.5 539.336,38.8333 539.5,44.5C 537.856,44.2865 536.356,44.6198 535,45.5C 534.505,47.4727 534.338,49.4727 534.5,51.5C 537.167,51.5 539.833,51.5 542.5,51.5C 542.833,44.8333 543.167,44.8333 543.5,51.5C 545.833,51.5 548.167,51.5 550.5,51.5C 551.167,46.1667 551.833,46.1667 552.5,51.5C 554.833,51.5 557.167,51.5 559.5,51.5C 559.5,48.8333 559.5,46.1667 559.5,43.5C 561.167,43.5 562.833,43.5 564.5,43.5C 565.805,37.6382 563.472,35.1382 557.5,36C 560.146,35.5026 562.813,35.3359 565.5,35.5C 565.5,38.1667 565.5,40.8333 565.5,43.5C 570.833,43.5 576.167,43.5 581.5,43.5C 581.5,41.1667 581.5,38.8333 581.5,36.5C 578.813,36.6641 576.146,36.4974 573.5,36C 580.081,35.8129 586.581,35.3129 593,34.5C 597.331,35.0216 601.664,35.3549 606,35.5C 607.681,35.3917 608.848,34.7251 609.5,33.5C 615.5,33.5 621.5,33.5 627.5,33.5C 626.508,35.0265 625.008,35.6932 623,35.5C 619.968,33.5859 617.802,34.2525 616.5,37.5C 613.833,37.5 611.167,37.5 608.5,37.5C 608.244,39.7925 608.577,41.9592 609.5,44C 607.899,44.2734 606.399,44.7734 605,45.5C 604.814,47.9005 604.314,50.2338 603.5,52.5C 603.295,50.4476 603.295,48.1143 603.5,45.5C 600.833,45.5 598.167,45.5 595.5,45.5C 595.328,54.8099 594.828,54.8099 594,45.5C 587.844,42.8416 585.344,44.8416 586.5,51.5C 590.5,50.8333 592.167,52.5 591.5,56.5C 576.5,56.5 561.5,56.5 546.5,56.5C 539.5,56.5 532.5,56.5 525.5,56.5C 525.665,53.1501 525.498,49.8168 525,46.5C 524.502,49.4816 524.335,52.4816 524.5,55.5C 518.752,54.836 517.419,52.0026 520.5,47C 520.667,42.5546 520.334,38.0546 519.5,33.5C 521.167,33.5 522.833,33.5 524.5,33.5C 524.334,37.5138 524.501,41.5138 525,45.5C 527.939,44.8719 530.772,44.2052 533.5,43.5 Z"/></g>
<g><path style="opacity:1" fill="#090708" d="M 583.5,36.5 C 589.5,35.1667 591.833,37.5 590.5,43.5C 588.833,43.5 587.167,43.5 585.5,43.5C 585.5,46.1667 585.5,48.8333 585.5,51.5C 583.167,51.5 580.833,51.5 578.5,51.5C 578.5,49.1667 578.5,46.8333 578.5,44.5C 580.199,44.6602 581.866,44.4935 583.5,44C 582.221,41.5024 582.221,39.0024 583.5,36.5 Z"/></g>
<g><path style="opacity:1" fill="#080404" d="M 599.5,33.5 C 602.833,33.5 606.167,33.5 609.5,33.5C 608.848,34.7251 607.681,35.3917 606,35.5C 601.664,35.3549 597.331,35.0216 593,34.5C 586.581,35.3129 580.081,35.8129 573.5,36C 576.146,36.4974 578.813,36.6641 581.5,36.5C 581.5,38.8333 581.5,41.1667 581.5,43.5C 576.167,43.5 570.833,43.5 565.5,43.5C 565.5,40.8333 565.5,38.1667 565.5,35.5C 562.813,35.3359 560.146,35.5026 557.5,36C 563.472,35.1382 565.805,37.6382 564.5,43.5C 562.833,43.5 561.167,43.5 559.5,43.5C 559.5,46.1667 559.5,48.8333 559.5,51.5C 557.167,51.5 554.833,51.5 552.5,51.5C 551.833,46.1667 551.167,46.1667 550.5,51.5C 548.167,51.5 545.833,51.5 543.5,51.5C 543.167,44.8333 542.833,44.8333 542.5,51.5C 539.833,51.5 537.167,51.5 534.5,51.5C 534.338,49.4727 534.505,47.4727 535,45.5C 536.356,44.6198 537.856,44.2865 539.5,44.5C 539.336,38.8333 539.003,38.5 538.5,43.5C 536.833,43.5 535.167,43.5 533.5,43.5C 531.167,43.5 528.833,43.5 526.5,43.5C 526.5,41.1667 526.5,38.8333 526.5,36.5C 533.041,36.4622 533.041,35.7955 526.5,34.5C 550.824,33.5003 575.158,33.1669 599.5,33.5 Z"/></g>
<g><path style="opacity:1" fill="#100d0d" d="M 616.5,37.5 C 616.833,46.8333 617.167,46.8333 617.5,37.5C 619.833,37.5 622.167,37.5 624.5,37.5C 624.337,39.8568 624.503,42.1902 625,44.5C 626.356,45.3802 627.856,45.7135 629.5,45.5C 630.656,52.1584 628.156,54.1584 622,51.5C 621.172,42.1901 620.672,42.1901 620.5,51.5C 618.167,51.5 615.833,51.5 613.5,51.5C 613.808,49.076 613.474,46.7427 612.5,44.5C 611.516,47.4281 611.183,50.4281 611.5,53.5C 613.167,53.5 614.833,53.5 616.5,53.5C 616.5,54.5 616.5,55.5 616.5,56.5C 613.833,56.5 611.167,56.5 608.5,56.5C 608.167,51.1667 607.833,51.1667 607.5,56.5C 604.833,56.5 602.167,56.5 599.5,56.5C 599.906,54.8908 599.906,53.5575 599.5,52.5C 598.571,53.6888 598.238,55.0222 598.5,56.5C 596.167,56.5 593.833,56.5 591.5,56.5C 592.167,52.5 590.5,50.8333 586.5,51.5C 585.344,44.8416 587.844,42.8416 594,45.5C 594.828,54.8099 595.328,54.8099 595.5,45.5C 598.167,45.5 600.833,45.5 603.5,45.5C 603.295,48.1143 603.295,50.4476 603.5,52.5C 604.314,50.2338 604.814,47.9005 605,45.5C 606.399,44.7734 607.899,44.2734 609.5,44C 608.577,41.9592 608.244,39.7925 608.5,37.5C 611.167,37.5 613.833,37.5 616.5,37.5 Z"/></g>
<g><path style="opacity:1" fill="#827f8c" d="M 658.5,34.5 C 658.5,34.1667 658.5,33.8333 658.5,33.5C 664.142,33.5857 669.476,33.5857 674.5,33.5C 675.043,33.56 675.376,33.8933 675.5,34.5C 669.824,43.8489 664.658,53.5156 660,63.5C 658.89,65.0368 657.39,65.7035 655.5,65.5C 655.672,64.5084 655.338,63.8417 654.5,63.5C 652.599,61.2043 650.266,59.371 647.5,58C 649.058,57.79 650.391,57.29 651.5,56.5C 652.327,51.0149 652.827,45.3482 653,39.5C 655.705,44.8355 657.038,50.5022 657,56.5C 657.173,50.6518 657.673,44.9851 658.5,39.5C 658.334,46.8409 658.5,54.1742 659,61.5C 660.786,58.2635 662.286,54.9302 663.5,51.5C 666.117,46.0175 669.117,40.6842 672.5,35.5C 670.008,34.8035 667.508,35.1368 665,36.5C 663.079,34.9972 660.912,34.3305 658.5,34.5 Z"/></g>
<g><path style="opacity:1" fill="#060407" d="M 651.5,56.5 C 648.302,57.0356 645.635,56.369 643.5,54.5C 645.948,53.5269 648.615,53.1936 651.5,53.5C 651.5,54.5 651.5,55.5 651.5,56.5 Z"/></g>
<g><path style="opacity:1" fill="#221f20" d="M 629.5,45.5 C 636.833,45.5 644.167,45.5 651.5,45.5C 651.5,47.8333 651.5,50.1667 651.5,52.5C 647.988,51.9455 644.988,52.6122 642.5,54.5C 640.365,56.369 637.698,57.0356 634.5,56.5C 628.889,57.7383 622.889,57.7383 616.5,56.5C 616.5,55.5 616.5,54.5 616.5,53.5C 614.833,53.5 613.167,53.5 611.5,53.5C 611.183,50.4281 611.516,47.4281 612.5,44.5C 613.474,46.7427 613.808,49.076 613.5,51.5C 615.833,51.5 618.167,51.5 620.5,51.5C 620.672,42.1901 621.172,42.1901 622,51.5C 628.156,54.1584 630.656,52.1584 629.5,45.5 Z"/></g>
<g><path style="opacity:1" fill="#3b3334" d="M 642.5,54.5 C 642.833,54.5 643.167,54.5 643.5,54.5C 645.635,56.369 648.302,57.0356 651.5,56.5C 650.391,57.29 649.058,57.79 647.5,58C 650.266,59.371 652.599,61.2043 654.5,63.5C 652.696,64.162 650.696,64.4954 648.5,64.5C 625.339,63.8964 602.339,63.2297 579.5,62.5C 599.503,62.6666 619.503,62.5 639.5,62C 638.044,61.5774 637.544,60.7441 638,59.5C 638.333,59.8333 638.667,60.1667 639,60.5C 639.448,58.7756 640.282,58.109 641.5,58.5C 639.031,57.8319 636.698,57.1653 634.5,56.5C 637.698,57.0356 640.365,56.369 642.5,54.5 Z"/></g>
<g><path style="opacity:1" fill="#554949" d="M 616.5,56.5 C 622.889,57.7383 628.889,57.7383 634.5,56.5C 636.698,57.1653 639.031,57.8319 641.5,58.5C 640.282,58.109 639.448,58.7756 639,60.5C 638.667,60.1667 638.333,59.8333 638,59.5C 637.544,60.7441 638.044,61.5774 639.5,62C 619.503,62.5 599.503,62.6666 579.5,62.5C 565.5,62.5 551.5,62.5 537.5,62.5C 536.391,61.71 535.058,61.21 533.5,61C 534.167,60.6667 534.833,60.3333 535.5,60C 534.377,58.9563 533.044,58.2896 531.5,58C 536.684,57.8261 541.684,57.3261 546.5,56.5C 561.5,56.5 576.5,56.5 591.5,56.5C 593.833,56.5 596.167,56.5 598.5,56.5C 598.238,55.0222 598.571,53.6888 599.5,52.5C 599.906,53.5575 599.906,54.8908 599.5,56.5C 602.167,56.5 604.833,56.5 607.5,56.5C 607.833,51.1667 608.167,51.1667 608.5,56.5C 611.167,56.5 613.833,56.5 616.5,56.5 Z"/></g>
<g><path style="opacity:1" fill="#110f0f" d="M 537.5,62.5 C 551.5,62.5 565.5,62.5 579.5,62.5C 602.339,63.2297 625.339,63.8964 648.5,64.5C 650.696,64.4954 652.696,64.162 654.5,63.5C 655.338,63.8417 655.672,64.5084 655.5,65.5C 651.585,66.2668 647.585,66.7668 643.5,67C 609.5,67.6667 575.5,67.6667 541.5,67C 534.44,66.2191 527.44,65.3858 520.5,64.5C 520.167,64.5 519.833,64.5 519.5,64.5C 519.5,64.1667 519.5,63.8333 519.5,63.5C 525.536,63.6401 531.536,63.3068 537.5,62.5 Z"/></g>
<g><path style="opacity:1" fill="#0f0807" d="M 550.5,81.5 C 548.473,84.5313 546.807,87.8646 545.5,91.5C 545.167,92.1667 544.833,92.8333 544.5,93.5C 543.903,93.2648 543.57,92.7648 543.5,92C 544.994,89.3612 545.661,86.5279 545.5,83.5C 544.5,83.5 543.5,83.5 542.5,83.5C 542.5,81.8333 542.5,80.1667 542.5,78.5C 545.167,78.5 547.833,78.5 550.5,78.5C 550.5,79.5 550.5,80.5 550.5,81.5 Z"/></g>
<g><path style="opacity:1" fill="#151414" d="M 629.5,85.5 C 627.958,86.3007 626.292,86.634 624.5,86.5C 623.5,86.5 622.5,86.5 621.5,86.5C 621.5,83.8333 621.5,81.1667 621.5,78.5C 627.927,76.7618 630.594,79.0951 629.5,85.5 Z"/></g>
<g><path style="opacity:1" fill="#363d4f" d="M 637.5,85.5 C 636.432,86.4345 635.099,86.7678 633.5,86.5C 632.209,86.7373 631.209,86.404 630.5,85.5C 632.833,82.8333 635.167,82.8333 637.5,85.5 Z"/></g>
<g><path style="opacity:1" fill="#646061" d="M 525.5,74.5 C 527.048,75.7943 529.048,76.4609 531.5,76.5C 533.952,76.4609 535.952,75.7943 537.5,74.5C 537.833,74.5 538.167,74.5 538.5,74.5C 539.152,75.7251 540.319,76.3917 542,76.5C 543.681,76.3917 544.848,75.7251 545.5,74.5C 546.167,74.5 546.833,74.5 547.5,74.5C 547.5,75.5 547.5,76.5 547.5,77.5C 549.833,77.5 552.167,77.5 554.5,77.5C 554.5,76.5 554.5,75.5 554.5,74.5C 554.833,74.5 555.167,74.5 555.5,74.5C 555.414,75.4959 555.748,76.3292 556.5,77C 558.81,77.4966 561.143,77.6633 563.5,77.5C 563.5,76.5 563.5,75.5 563.5,74.5C 563.833,74.5 564.167,74.5 564.5,74.5C 564.5,75.5 564.5,76.5 564.5,77.5C 566.857,77.6633 569.19,77.4966 571.5,77C 572.252,76.3292 572.586,75.4959 572.5,74.5C 572.833,74.5 573.167,74.5 573.5,74.5C 573.5,75.5 573.5,76.5 573.5,77.5C 575.833,77.5 578.167,77.5 580.5,77.5C 580.5,76.5 580.5,75.5 580.5,74.5C 580.833,74.5 581.167,74.5 581.5,74.5C 581.414,75.4959 581.748,76.3292 582.5,77C 584.81,77.4966 587.143,77.6633 589.5,77.5C 589.5,76.5 589.5,75.5 589.5,74.5C 589.833,74.5 590.167,74.5 590.5,74.5C 590.5,75.5 590.5,76.5 590.5,77.5C 593.167,77.5 595.833,77.5 598.5,77.5C 598.5,76.5 598.5,75.5 598.5,74.5C 598.833,74.5 599.167,74.5 599.5,74.5C 599.5,75.5 599.5,76.5 599.5,77.5C 602.167,77.5 604.833,77.5 607.5,77.5C 607.5,76.5 607.5,75.5 607.5,74.5C 607.833,74.5 608.167,74.5 608.5,74.5C 608.5,75.5 608.5,76.5 608.5,77.5C 610.833,77.5 613.167,77.5 615.5,77.5C 615.5,76.5 615.5,75.5 615.5,74.5C 616.167,74.5 616.833,74.5 617.5,74.5C 617.5,75.5 617.5,76.5 617.5,77.5C 619.833,77.5 622.167,77.5 624.5,77.5C 624.5,76.5 624.5,75.5 624.5,74.5C 625.167,74.5 625.833,74.5 626.5,74.5C 626.5,75.5 626.5,76.5 626.5,77.5C 628.833,77.5 631.167,77.5 633.5,77.5C 633.5,76.5 633.5,75.5 633.5,74.5C 633.833,74.5 634.167,74.5 634.5,74.5C 634.5,75.5 634.5,76.5 634.5,77.5C 636.167,77.5 637.833,77.5 639.5,77.5C 638.833,78.1667 638.167,78.8333 637.5,79.5C 635.167,79.5 632.833,79.5 630.5,79.5C 630.5,81.5 630.5,83.5 630.5,85.5C 630.167,85.5 629.833,85.5 629.5,85.5C 630.594,79.0951 627.927,76.7618 621.5,78.5C 621.5,81.1667 621.5,83.8333 621.5,86.5C 622.5,86.5 623.5,86.5 624.5,86.5C 624.5,86.8333 624.5,87.1667 624.5,87.5C 622.167,87.5 619.833,87.5 617.5,87.5C 617.5,89.8333 617.5,92.1667 617.5,94.5C 616.833,94.5 616.167,94.5 615.5,94.5C 615.5,92.1667 615.5,89.8333 615.5,87.5C 613.167,87.5 610.833,87.5 608.5,87.5C 608.5,89.8333 608.5,92.1667 608.5,94.5C 607.833,94.5 607.167,94.5 606.5,94.5C 606.5,92.1667 606.5,89.8333 606.5,87.5C 604.167,87.5 601.833,87.5 599.5,87.5C 598.737,89.2285 598.07,91.5618 597.5,94.5C 597.5,92.1667 597.5,89.8333 597.5,87.5C 595.167,87.5 592.833,87.5 590.5,87.5C 590.167,86.1667 589.833,86.1667 589.5,87.5C 586.833,87.5 584.167,87.5 581.5,87.5C 581.5,89.5 581.5,91.5 581.5,93.5C 581.167,93.5 580.833,93.5 580.5,93.5C 580.5,91.1667 580.5,88.8333 580.5,86.5C 578.167,86.5 575.833,86.5 573.5,86.5C 573.5,88.8333 573.5,91.1667 573.5,93.5C 572.833,93.5 572.167,93.5 571.5,93.5C 571.5,91.1667 571.5,88.8333 571.5,86.5C 569.167,86.5 566.833,86.5 564.5,86.5C 564.5,88.1667 564.5,89.8333 564.5,91.5C 563.766,92.7079 563.433,94.0413 563.5,95.5C 563.167,95.5 562.833,95.5 562.5,95.5C 560.833,95.5 559.167,95.5 557.5,95.5C 557.5,97.8333 557.5,100.167 557.5,102.5C 557.5,102.833 557.5,103.167 557.5,103.5C 556.167,103.5 554.833,103.5 553.5,103.5C 553.599,106.237 553.265,108.904 552.5,111.5C 552.167,111.5 551.833,111.5 551.5,111.5C 550.612,108.946 550.279,106.279 550.5,103.5C 550.5,103.167 550.5,102.833 550.5,102.5C 552.5,102.5 554.5,102.5 556.5,102.5C 556.535,99.2624 556.035,96.2624 555,93.5C 557.381,94.435 559.881,94.7683 562.5,94.5C 562.5,91.8333 562.5,89.1667 562.5,86.5C 561.167,86.5 559.833,86.5 558.5,86.5C 558.5,83.8333 558.5,81.1667 558.5,78.5C 556.167,78.5 553.833,78.5 551.5,78.5C 551.5,79.5 551.5,80.5 551.5,81.5C 551.167,81.5 550.833,81.5 550.5,81.5C 550.5,80.5 550.5,79.5 550.5,78.5C 547.833,78.5 545.167,78.5 542.5,78.5C 542.5,80.1667 542.5,81.8333 542.5,83.5C 542.5,84.1667 542.167,84.5 541.5,84.5C 541.5,82.5 541.5,80.5 541.5,78.5C 538.833,78.5 536.167,78.5 533.5,78.5C 533.5,80.8333 533.5,83.1667 533.5,85.5C 535.833,85.5 538.167,85.5 540.5,85.5C 539.525,87.7952 538.192,89.7952 536.5,91.5C 536.5,89.8333 536.5,88.1667 536.5,86.5C 532.833,86.5 529.167,86.5 525.5,86.5C 525.5,86.1667 525.5,85.8333 525.5,85.5C 524.167,81.8333 524.167,78.1667 525.5,74.5 Z"/></g>
<g><path style="opacity:1" fill="#111111" d="M 612.5,78.5 C 619.107,76.749 621.607,79.0823 620,85.5C 613.32,87.9926 610.82,85.6593 612.5,78.5 Z"/></g>
<g><path style="opacity:1" fill="#474e63" d="M 650.5,79.5 C 651.468,81.6074 651.802,83.9407 651.5,86.5C 647.298,86.8168 643.298,86.4834 639.5,85.5C 639.5,83.5 639.5,81.5 639.5,79.5C 643.167,79.5 646.833,79.5 650.5,79.5 Z"/></g>
<g><path style="opacity:1" fill="#e96105" d="M 519.5,64.5 C 519.833,64.5 520.167,64.5 520.5,64.5C 520.573,66.0269 519.906,67.0269 518.5,67.5C 517.833,67.5 517.5,67.8333 517.5,68.5C 509.312,78.1846 499.979,86.6846 489.5,94C 488.663,95.0113 488.33,96.1779 488.5,97.5C 497.359,98.4225 506.025,99.7558 514.5,101.5C 492.174,100.764 469.841,100.431 447.5,100.5C 447.5,99.1667 447.5,97.8333 447.5,96.5C 450.216,96.3215 452.883,95.8215 455.5,95C 476.477,84.0111 497.81,73.8444 519.5,64.5 Z"/></g>
<g><path style="opacity:1" fill="#732e21" d="M 542.5,83.5 C 543.5,83.5 544.5,83.5 545.5,83.5C 545.661,86.5279 544.994,89.3612 543.5,92C 543.57,92.7648 543.903,93.2648 544.5,93.5C 541.928,100.23 540.928,107.23 541.5,114.5C 540.514,110.03 540.181,105.363 540.5,100.5C 540.833,99.1667 541.167,97.8333 541.5,96.5C 542.791,95.4583 542.791,94.2917 541.5,93C 539.866,92.5065 538.199,92.3398 536.5,92.5C 536.5,92.1667 536.5,91.8333 536.5,91.5C 538.192,89.7952 539.525,87.7952 540.5,85.5C 541.167,85.5 541.5,85.1667 541.5,84.5C 542.167,84.5 542.5,84.1667 542.5,83.5 Z"/></g>
<g><path style="opacity:1" fill="#da5406" d="M 517.5,68.5 C 516.882,72.2008 516.049,75.8675 515,79.5C 511.257,85.3657 508.09,91.5324 505.5,98C 508.758,98.2117 511.924,98.7117 515,99.5C 515.5,111.495 515.667,123.495 515.5,135.5C 515.334,144.173 515.5,152.84 516,161.5C 516.708,162.381 517.542,163.047 518.5,163.5C 520.607,164.468 522.941,164.802 525.5,164.5C 524.85,171.113 523.184,177.447 520.5,183.5C 519.662,183.842 519.328,184.508 519.5,185.5C 518.263,186.965 517.263,188.632 516.5,190.5C 515.167,193.167 513.833,195.833 512.5,198.5C 509.161,201.835 506.828,205.835 505.5,210.5C 504.069,211.78 503.402,213.447 503.5,215.5C 502.814,223.574 501.481,231.574 499.5,239.5C 497.167,239.5 494.833,239.5 492.5,239.5C 492.176,225.496 497.01,213.496 507,203.5C 509.242,196.754 512.242,190.421 516,184.5C 517.355,178.215 517.689,171.882 517,165.5C 516.333,164.833 515.667,164.167 515,163.5C 514.5,142.836 514.333,122.169 514.5,101.5C 506.025,99.7558 497.359,98.4225 488.5,97.5C 488.33,96.1779 488.663,95.0113 489.5,94C 499.979,86.6846 509.312,78.1846 517.5,68.5 Z"/></g>
<g><path style="opacity:1" fill="#0f0909" d="M 525.5,86.5 C 529.167,86.5 532.833,86.5 536.5,86.5C 536.5,88.1667 536.5,89.8333 536.5,91.5C 536.5,91.8333 536.5,92.1667 536.5,92.5C 535.559,94.0495 534.893,95.7162 534.5,97.5C 533.704,95.1643 532.038,93.831 529.5,93.5C 528.167,93.5 526.833,93.5 525.5,93.5C 525.5,91.1667 525.5,88.8333 525.5,86.5 Z"/></g>
<g><path style="opacity:1" fill="#0f0f0f" d="M 580.5,93.5 C 578.167,94.8333 575.833,94.8333 573.5,93.5C 573.5,91.1667 573.5,88.8333 573.5,86.5C 575.833,86.5 578.167,86.5 580.5,86.5C 580.5,88.8333 580.5,91.1667 580.5,93.5 Z"/></g>
<g><path style="opacity:1" fill="#0d0d0c" d="M 589.5,87.5 C 589.5,89.8333 589.5,92.1667 589.5,94.5C 586.615,94.8064 583.948,94.4731 581.5,93.5C 581.5,91.5 581.5,89.5 581.5,87.5C 584.167,87.5 586.833,87.5 589.5,87.5 Z"/></g>
<g><path style="opacity:1" fill="#ba4613" d="M 518.5,67.5 C 518.9,78.3496 518.233,89.0163 516.5,99.5C 516.5,106.167 516.5,112.833 516.5,119.5C 516.821,125.026 516.488,130.36 515.5,135.5C 515.667,123.495 515.5,111.495 515,99.5C 511.924,98.7117 508.758,98.2117 505.5,98C 508.09,91.5324 511.257,85.3657 515,79.5C 516.049,75.8675 516.882,72.2008 517.5,68.5C 517.5,67.8333 517.833,67.5 518.5,67.5 Z"/></g>
<g><path style="opacity:1" fill="#7c3623" d="M 550.5,81.5 C 550.833,81.5 551.167,81.5 551.5,81.5C 552.5,81.5 553.5,81.5 554.5,81.5C 554.656,85.7643 553.989,89.7643 552.5,93.5C 552.389,92.8826 552.056,92.3826 551.5,92C 549.527,91.5045 547.527,91.3379 545.5,91.5C 546.807,87.8646 548.473,84.5313 550.5,81.5 Z"/></g>
<g><path style="opacity:1" fill="#bbbcc1" d="M 651.5,74.5 C 652.661,89.6611 652.828,104.994 652,120.5C 649.063,121.817 646.23,121.817 643.5,120.5C 642.833,120.5 642.167,120.5 641.5,120.5C 641.5,118.167 641.5,115.833 641.5,113.5C 639.167,113.5 636.833,113.5 634.5,113.5C 634.5,115.833 634.5,118.167 634.5,120.5C 634.167,120.5 633.833,120.5 633.5,120.5C 633.802,117.941 633.468,115.607 632.5,113.5C 638.645,112.51 644.978,112.177 651.5,112.5C 651.5,109.833 651.5,107.167 651.5,104.5C 649.167,104.5 646.833,104.5 644.5,104.5C 640.5,104.5 636.5,104.5 632.5,104.5C 631.833,104.5 631.167,104.5 630.5,104.5C 628.167,104.5 625.833,104.5 623.5,104.5C 623.5,106.833 623.5,109.167 623.5,111.5C 623.167,112.833 622.833,112.833 622.5,111.5C 622.5,109.167 622.5,106.833 622.5,104.5C 619.833,104.5 617.167,104.5 614.5,104.5C 614.198,107.059 614.532,109.393 615.5,111.5C 615.5,111.833 615.5,112.167 615.5,112.5C 612.167,112.5 608.833,112.5 605.5,112.5C 605.5,115.167 605.5,117.833 605.5,120.5C 605.167,120.5 604.833,120.5 604.5,120.5C 604.5,120.167 604.5,119.833 604.5,119.5C 604.5,117.167 604.5,114.833 604.5,112.5C 593.833,112.5 583.167,112.5 572.5,112.5C 571.833,112.5 571.5,112.167 571.5,111.5C 574.059,111.802 576.393,111.468 578.5,110.5C 578.833,110.5 579.167,110.5 579.5,110.5C 581.607,111.468 583.941,111.802 586.5,111.5C 587.167,111.5 587.833,111.5 588.5,111.5C 590.833,111.5 593.167,111.5 595.5,111.5C 596.167,111.5 596.833,111.5 597.5,111.5C 599.833,111.5 602.167,111.5 604.5,111.5C 604.5,109.167 604.5,106.833 604.5,104.5C 605.833,103.833 607.167,103.167 608.5,102.5C 609.167,102.5 609.833,102.5 610.5,102.5C 612.833,103.833 615.167,103.833 617.5,102.5C 618.167,102.5 618.833,102.5 619.5,102.5C 621.833,103.833 624.167,103.833 626.5,102.5C 627.167,102.833 627.833,103.167 628.5,103.5C 630.833,103.5 633.167,103.5 635.5,103.5C 635.5,101.167 635.5,98.8333 635.5,96.5C 636.167,95.1667 636.833,95.1667 637.5,96.5C 636.532,98.6074 636.198,100.941 636.5,103.5C 641.5,103.5 646.5,103.5 651.5,103.5C 651.802,100.941 651.468,98.6074 650.5,96.5C 650.5,95.8333 650.5,95.1667 650.5,94.5C 651.468,92.3926 651.802,90.0593 651.5,87.5C 648.833,87.5 646.167,87.5 643.5,87.5C 643.5,89.8333 643.5,92.1667 643.5,94.5C 643.167,95.8333 642.833,95.8333 642.5,94.5C 642.5,92.1667 642.5,89.8333 642.5,87.5C 639.833,87.5 637.167,87.5 634.5,87.5C 634.5,89.8333 634.5,92.1667 634.5,94.5C 634.167,95.8333 633.833,95.8333 633.5,94.5C 633.5,92.1667 633.5,89.8333 633.5,87.5C 633.5,87.1667 633.5,86.8333 633.5,86.5C 635.099,86.7678 636.432,86.4345 637.5,85.5C 638.167,85.5 638.833,85.5 639.5,85.5C 643.298,86.4834 647.298,86.8168 651.5,86.5C 651.802,83.9407 651.468,81.6074 650.5,79.5C 651.301,77.9582 651.634,76.2915 651.5,74.5 Z"/></g>
<g><path style="opacity:1" fill="#333a4a" d="M 633.5,87.5 C 633.5,89.8333 633.5,92.1667 633.5,94.5C 630.833,94.5 628.167,94.5 625.5,94.5C 625.5,92.1667 625.5,89.8333 625.5,87.5C 628.167,87.5 630.833,87.5 633.5,87.5 Z"/></g>
<g><path style="opacity:1" fill="#1e1616" d="M 550.5,102.5 C 550.756,99.4021 551.422,96.4021 552.5,93.5C 553.989,89.7643 554.656,85.7643 554.5,81.5C 553.5,81.5 552.5,81.5 551.5,81.5C 551.5,80.5 551.5,79.5 551.5,78.5C 553.833,78.5 556.167,78.5 558.5,78.5C 558.5,81.1667 558.5,83.8333 558.5,86.5C 559.833,86.5 561.167,86.5 562.5,86.5C 562.5,89.1667 562.5,91.8333 562.5,94.5C 559.881,94.7683 557.381,94.435 555,93.5C 556.035,96.2624 556.535,99.2624 556.5,102.5C 554.5,102.5 552.5,102.5 550.5,102.5 Z"/></g>
<g><path style="opacity:1" fill="#6d2f1f" d="M 569.5,96.5 C 569.585,95.0047 568.919,94.0047 567.5,93.5C 566.14,94.1799 564.807,94.8466 563.5,95.5C 563.433,94.0413 563.766,92.7079 564.5,91.5C 565.682,88.9908 567.682,87.6574 570.5,87.5C 570.81,90.7131 570.477,93.7131 569.5,96.5 Z"/></g>
<g><path style="opacity:1" fill="#394053" d="M 642.5,94.5 C 639.833,94.5 637.167,94.5 634.5,94.5C 634.5,92.1667 634.5,89.8333 634.5,87.5C 637.167,87.5 639.833,87.5 642.5,87.5C 642.5,89.8333 642.5,92.1667 642.5,94.5 Z"/></g>
<g><path style="opacity:1" fill="#495067" d="M 650.5,94.5 C 648.167,94.5 645.833,94.5 643.5,94.5C 643.5,92.1667 643.5,89.8333 643.5,87.5C 646.167,87.5 648.833,87.5 651.5,87.5C 651.802,90.0593 651.468,92.3926 650.5,94.5 Z"/></g>
<g><path style="opacity:1" fill="#9a8c90" d="M 520.5,64.5 C 527.44,65.3858 534.44,66.2191 541.5,67C 575.5,67.6667 609.5,67.6667 643.5,67C 647.585,66.7668 651.585,66.2668 655.5,65.5C 655.5,66.1667 655.5,66.8333 655.5,67.5C 652.214,69.4512 649.214,71.7846 646.5,74.5C 648.167,74.5 649.833,74.5 651.5,74.5C 651.634,76.2915 651.301,77.9582 650.5,79.5C 646.833,79.5 643.167,79.5 639.5,79.5C 639.5,81.5 639.5,83.5 639.5,85.5C 638.833,85.5 638.167,85.5 637.5,85.5C 637.5,83.5 637.5,81.5 637.5,79.5C 638.167,78.8333 638.833,78.1667 639.5,77.5C 640.5,77.5 641.5,77.5 642.5,77.5C 642.5,76.5 642.5,75.5 642.5,74.5C 639.833,74.5 637.167,74.5 634.5,74.5C 634.167,74.5 633.833,74.5 633.5,74.5C 631.167,74.5 628.833,74.5 626.5,74.5C 625.833,74.5 625.167,74.5 624.5,74.5C 622.167,74.5 619.833,74.5 617.5,74.5C 616.833,74.5 616.167,74.5 615.5,74.5C 613.167,74.5 610.833,74.5 608.5,74.5C 608.167,74.5 607.833,74.5 607.5,74.5C 604.833,74.5 602.167,74.5 599.5,74.5C 599.167,74.5 598.833,74.5 598.5,74.5C 595.833,74.5 593.167,74.5 590.5,74.5C 590.167,74.5 589.833,74.5 589.5,74.5C 586.833,74.5 584.167,74.5 581.5,74.5C 581.167,74.5 580.833,74.5 580.5,74.5C 578.167,74.5 575.833,74.5 573.5,74.5C 573.167,74.5 572.833,74.5 572.5,74.5C 569.728,73.2329 567.061,73.2329 564.5,74.5C 564.167,74.5 563.833,74.5 563.5,74.5C 560.833,73.1667 558.167,73.1667 555.5,74.5C 555.167,74.5 554.833,74.5 554.5,74.5C 552.167,73.1667 549.833,73.1667 547.5,74.5C 546.833,74.5 546.167,74.5 545.5,74.5C 543.167,73.1667 540.833,73.1667 538.5,74.5C 538.167,74.5 537.833,74.5 537.5,74.5C 533.5,73.1667 529.5,73.1667 525.5,74.5C 524.167,78.1667 524.167,81.8333 525.5,85.5C 525.5,85.8333 525.5,86.1667 525.5,86.5C 524.523,89.2869 524.19,92.2869 524.5,95.5C 524.5,96.1667 524.5,96.8333 524.5,97.5C 523.596,98.209 523.263,99.209 523.5,100.5C 520.762,101.035 518.928,100.035 518,97.5C 517.722,98.4158 517.222,99.0825 516.5,99.5C 518.233,89.0163 518.9,78.3496 518.5,67.5C 519.906,67.0269 520.573,66.0269 520.5,64.5 Z"/></g>
<g><path style="opacity:1" fill="#06070d" d="M 637.5,79.5 C 637.5,81.5 637.5,83.5 637.5,85.5C 635.167,82.8333 632.833,82.8333 630.5,85.5C 630.5,83.5 630.5,81.5 630.5,79.5C 632.833,79.5 635.167,79.5 637.5,79.5 Z"/></g>
<g><path style="opacity:1" fill="#0f0e0e" d="M 604.5,78.5 C 606.833,78.5 609.167,78.5 611.5,78.5C 611.5,80.8333 611.5,83.1667 611.5,85.5C 608.833,85.5 606.167,85.5 603.5,85.5C 603.298,83.0504 603.631,80.717 604.5,78.5 Z"/></g>
<g><path style="opacity:1" fill="#070707" d="M 595.5,78.5 C 597.833,78.5 600.167,78.5 602.5,78.5C 602.5,80.8333 602.5,83.1667 602.5,85.5C 600.167,85.5 597.833,85.5 595.5,85.5C 595.5,83.1667 595.5,80.8333 595.5,78.5 Z"/></g>
<g><path style="opacity:1" fill="#070606" d="M 586.5,78.5 C 588.833,78.5 591.167,78.5 593.5,78.5C 593.5,80.8333 593.5,83.1667 593.5,85.5C 591.167,85.5 588.833,85.5 586.5,85.5C 586.5,83.1667 586.5,80.8333 586.5,78.5 Z"/></g>
<g><path style="opacity:1" fill="#0f0e0e" d="M 577.5,78.5 C 580.167,78.5 582.833,78.5 585.5,78.5C 585.5,80.8333 585.5,83.1667 585.5,85.5C 582.833,85.5 580.167,85.5 577.5,85.5C 577.5,83.1667 577.5,80.8333 577.5,78.5 Z"/></g>
<g><path style="opacity:1" fill="#0d0c0d" d="M 568.5,78.5 C 571.167,78.5 573.833,78.5 576.5,78.5C 576.5,80.8333 576.5,83.1667 576.5,85.5C 573.833,85.5 571.167,85.5 568.5,85.5C 568.5,83.1667 568.5,80.8333 568.5,78.5 Z"/></g>
<g><path style="opacity:1" fill="#060606" d="M 560.5,78.5 C 562.833,78.5 565.167,78.5 567.5,78.5C 567.5,80.8333 567.5,83.1667 567.5,85.5C 565.167,85.5 562.833,85.5 560.5,85.5C 560.5,83.1667 560.5,80.8333 560.5,78.5 Z"/></g>
<g><path style="opacity:1" fill="#0b0a0a" d="M 541.5,84.5 C 541.5,85.1667 541.167,85.5 540.5,85.5C 538.167,85.5 535.833,85.5 533.5,85.5C 533.5,83.1667 533.5,80.8333 533.5,78.5C 536.167,78.5 538.833,78.5 541.5,78.5C 541.5,80.5 541.5,82.5 541.5,84.5 Z"/></g>
<g><path style="opacity:1" fill="#080607" d="M 525.5,85.5 C 525.5,83.1667 525.5,80.8333 525.5,78.5C 527.833,78.5 530.167,78.5 532.5,78.5C 532.5,80.8333 532.5,83.1667 532.5,85.5C 530.167,85.5 527.833,85.5 525.5,85.5 Z"/></g>
<g><path style="opacity:1" fill="#110d0e" d="M 590.5,74.5 C 593.167,74.5 595.833,74.5 598.5,74.5C 598.5,75.5 598.5,76.5 598.5,77.5C 595.833,77.5 593.167,77.5 590.5,77.5C 590.5,76.5 590.5,75.5 590.5,74.5 Z"/></g>
<g><path style="opacity:1" fill="#343950" d="M 646.5,74.5 C 647.718,75.1614 649.051,75.8281 650.5,76.5C 648.257,77.4742 645.924,77.8076 643.5,77.5C 643.5,76.5 643.5,75.5 643.5,74.5C 644.5,74.5 645.5,74.5 646.5,74.5 Z"/></g>
<g><path style="opacity:1" fill="#0d0c0b" d="M 634.5,74.5 C 637.167,74.5 639.833,74.5 642.5,74.5C 642.5,75.5 642.5,76.5 642.5,77.5C 641.5,77.5 640.5,77.5 639.5,77.5C 637.833,77.5 636.167,77.5 634.5,77.5C 634.5,76.5 634.5,75.5 634.5,74.5 Z"/></g>
<g><path style="opacity:1" fill="#070505" d="M 626.5,74.5 C 628.833,74.5 631.167,74.5 633.5,74.5C 633.5,75.5 633.5,76.5 633.5,77.5C 631.167,77.5 628.833,77.5 626.5,77.5C 626.5,76.5 626.5,75.5 626.5,74.5 Z"/></g>
<g><path style="opacity:1" fill="#030203" d="M 617.5,74.5 C 619.833,74.5 622.167,74.5 624.5,74.5C 624.5,75.5 624.5,76.5 624.5,77.5C 622.167,77.5 619.833,77.5 617.5,77.5C 617.5,76.5 617.5,75.5 617.5,74.5 Z"/></g>
<g><path style="opacity:1" fill="#040203" d="M 608.5,74.5 C 610.833,74.5 613.167,74.5 615.5,74.5C 615.5,75.5 615.5,76.5 615.5,77.5C 613.167,77.5 610.833,77.5 608.5,77.5C 608.5,76.5 608.5,75.5 608.5,74.5 Z"/></g>
<g><path style="opacity:1" fill="#0a0809" d="M 599.5,74.5 C 602.167,74.5 604.833,74.5 607.5,74.5C 607.5,75.5 607.5,76.5 607.5,77.5C 604.833,77.5 602.167,77.5 599.5,77.5C 599.5,76.5 599.5,75.5 599.5,74.5 Z"/></g>
<g><path style="opacity:1" fill="#0c0a0a" d="M 581.5,74.5 C 584.167,74.5 586.833,74.5 589.5,74.5C 589.5,75.5 589.5,76.5 589.5,77.5C 587.143,77.6633 584.81,77.4966 582.5,77C 581.748,76.3292 581.414,75.4959 581.5,74.5 Z"/></g>
<g><path style="opacity:1" fill="#070505" d="M 573.5,74.5 C 575.833,74.5 578.167,74.5 580.5,74.5C 580.5,75.5 580.5,76.5 580.5,77.5C 578.167,77.5 575.833,77.5 573.5,77.5C 573.5,76.5 573.5,75.5 573.5,74.5 Z"/></g>
<g><path style="opacity:1" fill="#1b1818" d="M 572.5,74.5 C 572.586,75.4959 572.252,76.3292 571.5,77C 569.19,77.4966 566.857,77.6633 564.5,77.5C 564.5,76.5 564.5,75.5 564.5,74.5C 567.061,73.2329 569.728,73.2329 572.5,74.5 Z"/></g>
<g><path style="opacity:1" fill="#1c1a1a" d="M 563.5,74.5 C 563.5,75.5 563.5,76.5 563.5,77.5C 561.143,77.6633 558.81,77.4966 556.5,77C 555.748,76.3292 555.414,75.4959 555.5,74.5C 558.167,73.1667 560.833,73.1667 563.5,74.5 Z"/></g>
<g><path style="opacity:1" fill="#181616" d="M 554.5,74.5 C 554.5,75.5 554.5,76.5 554.5,77.5C 552.167,77.5 549.833,77.5 547.5,77.5C 547.5,76.5 547.5,75.5 547.5,74.5C 549.833,73.1667 552.167,73.1667 554.5,74.5 Z"/></g>
<g><path style="opacity:1" fill="#0e0c0c" d="M 545.5,74.5 C 544.848,75.7251 543.681,76.3917 542,76.5C 540.319,76.3917 539.152,75.7251 538.5,74.5C 540.833,73.1667 543.167,73.1667 545.5,74.5 Z"/></g>
<g><path style="opacity:1" fill="#0d0a0a" d="M 537.5,74.5 C 535.952,75.7943 533.952,76.4609 531.5,76.5C 529.048,76.4609 527.048,75.7943 525.5,74.5C 529.5,73.1667 533.5,73.1667 537.5,74.5 Z"/></g>
<g><path style="opacity:1" fill="#4f4242" d="M 525.5,86.5 C 525.5,88.8333 525.5,91.1667 525.5,93.5C 526.833,93.5 528.167,93.5 529.5,93.5C 529.5,94.1667 529.5,94.8333 529.5,95.5C 529.737,96.791 529.404,97.791 528.5,98.5C 528.5,97.5 528.5,96.5 528.5,95.5C 527.167,95.5 525.833,95.5 524.5,95.5C 524.19,92.2869 524.523,89.2869 525.5,86.5 Z"/></g>
<g><path style="opacity:1" fill="#898a8f" d="M 629.5,85.5 C 629.833,85.5 630.167,85.5 630.5,85.5C 631.209,86.404 632.209,86.7373 633.5,86.5C 633.5,86.8333 633.5,87.1667 633.5,87.5C 630.833,87.5 628.167,87.5 625.5,87.5C 625.5,89.8333 625.5,92.1667 625.5,94.5C 628.167,94.5 630.833,94.5 633.5,94.5C 633.833,95.8333 634.167,95.8333 634.5,94.5C 637.167,94.5 639.833,94.5 642.5,94.5C 642.833,95.8333 643.167,95.8333 643.5,94.5C 645.833,94.5 648.167,94.5 650.5,94.5C 650.5,95.1667 650.5,95.8333 650.5,96.5C 646.167,96.5 641.833,96.5 637.5,96.5C 636.833,95.1667 636.167,95.1667 635.5,96.5C 633.167,96.5 630.833,96.5 628.5,96.5C 628.5,98.8333 628.5,101.167 628.5,103.5C 627.833,103.167 627.167,102.833 626.5,102.5C 626.5,100.5 626.5,98.5 626.5,96.5C 624.167,96.5 621.833,96.5 619.5,96.5C 619.5,98.5 619.5,100.5 619.5,102.5C 618.833,102.5 618.167,102.5 617.5,102.5C 617.5,100.167 617.5,97.8333 617.5,95.5C 615.167,95.5 612.833,95.5 610.5,95.5C 610.5,97.8333 610.5,100.167 610.5,102.5C 609.833,102.5 609.167,102.5 608.5,102.5C 607.167,103.167 605.833,103.833 604.5,104.5C 602.167,104.5 599.833,104.5 597.5,104.5C 597.5,106.833 597.5,109.167 597.5,111.5C 596.833,111.5 596.167,111.5 595.5,111.5C 595.5,109.167 595.5,106.833 595.5,104.5C 593.167,104.5 590.833,104.5 588.5,104.5C 588.5,106.833 588.5,109.167 588.5,111.5C 587.833,111.5 587.167,111.5 586.5,111.5C 586.5,109.167 586.5,106.833 586.5,104.5C 584.167,104.5 581.833,104.5 579.5,104.5C 579.5,106.5 579.5,108.5 579.5,110.5C 579.167,110.5 578.833,110.5 578.5,110.5C 578.5,108.5 578.5,106.5 578.5,104.5C 575.833,104.5 573.167,104.5 570.5,104.5C 570.167,103.167 569.833,103.167 569.5,104.5C 568.833,104.167 568.167,103.833 567.5,103.5C 567.328,102.508 567.662,101.842 568.5,101.5C 569.919,102.451 571.585,102.784 573.5,102.5C 573.71,99.248 573.044,96.248 571.5,93.5C 572.167,93.5 572.833,93.5 573.5,93.5C 575.833,94.8333 578.167,94.8333 580.5,93.5C 580.833,93.5 581.167,93.5 581.5,93.5C 583.948,94.4731 586.615,94.8064 589.5,94.5C 589.5,92.1667 589.5,89.8333 589.5,87.5C 589.833,86.1667 590.167,86.1667 590.5,87.5C 592.833,87.5 595.167,87.5 597.5,87.5C 597.5,89.8333 597.5,92.1667 597.5,94.5C 598.07,91.5618 598.737,89.2285 599.5,87.5C 601.833,87.5 604.167,87.5 606.5,87.5C 606.5,89.8333 606.5,92.1667 606.5,94.5C 607.167,94.5 607.833,94.5 608.5,94.5C 610.833,94.5 613.167,94.5 615.5,94.5C 616.167,94.5 616.833,94.5 617.5,94.5C 619.833,94.5 622.167,94.5 624.5,94.5C 624.5,92.1667 624.5,89.8333 624.5,87.5C 624.5,87.1667 624.5,86.8333 624.5,86.5C 626.292,86.634 627.958,86.3007 629.5,85.5 Z"/></g>
<g><path style="opacity:1" fill="#0d0d13" d="M 624.5,87.5 C 624.5,89.8333 624.5,92.1667 624.5,94.5C 622.167,94.5 619.833,94.5 617.5,94.5C 617.5,92.1667 617.5,89.8333 617.5,87.5C 619.833,87.5 622.167,87.5 624.5,87.5 Z"/></g>
<g><path style="opacity:1" fill="#050505" d="M 615.5,94.5 C 613.167,94.5 610.833,94.5 608.5,94.5C 608.5,92.1667 608.5,89.8333 608.5,87.5C 610.833,87.5 613.167,87.5 615.5,87.5C 615.5,89.8333 615.5,92.1667 615.5,94.5 Z"/></g>
<g><path style="opacity:1" fill="#050505" d="M 599.5,87.5 C 601.833,87.5 604.167,87.5 606.5,87.5C 606.5,89.8333 606.5,92.1667 606.5,94.5C 604.167,94.5 601.833,94.5 599.5,94.5C 599.5,92.1667 599.5,89.8333 599.5,87.5 Z"/></g>
<g><path style="opacity:1" fill="#090909" d="M 590.5,87.5 C 592.833,87.5 595.167,87.5 597.5,87.5C 597.5,89.8333 597.5,92.1667 597.5,94.5C 595.167,94.5 592.833,94.5 590.5,94.5C 590.5,92.1667 590.5,89.8333 590.5,87.5 Z"/></g>
<g><path style="opacity:1" fill="#0f0c0e" d="M 524.5,95.5 C 525.833,95.5 527.167,95.5 528.5,95.5C 528.5,96.5 528.5,97.5 528.5,98.5C 528.5,99.8333 528.5,101.167 528.5,102.5C 527.167,102.5 525.833,102.5 524.5,102.5C 524.5,100.833 524.5,99.1667 524.5,97.5C 524.5,96.8333 524.5,96.1667 524.5,95.5 Z"/></g>
<g><path style="opacity:1" fill="#130b0a" d="M 562.5,95.5 C 561.066,98.0472 559.4,100.381 557.5,102.5C 557.5,100.167 557.5,97.8333 557.5,95.5C 559.167,95.5 560.833,95.5 562.5,95.5 Z"/></g>
<g><path style="opacity:1" fill="#070708" d="M 575.5,95.5 C 577.833,95.5 580.167,95.5 582.5,95.5C 582.5,97.8333 582.5,100.167 582.5,102.5C 580.167,102.5 577.833,102.5 575.5,102.5C 575.5,100.167 575.5,97.8333 575.5,95.5 Z"/></g>
<g><path style="opacity:1" fill="#131315" d="M 583.5,95.5 C 586.167,95.5 588.833,95.5 591.5,95.5C 591.5,97.8333 591.5,100.167 591.5,102.5C 588.833,102.5 586.167,102.5 583.5,102.5C 583.5,100.167 583.5,97.8333 583.5,95.5 Z"/></g>
<g><path style="opacity:1" fill="#141416" d="M 592.5,95.5 C 595.167,95.5 597.833,95.5 600.5,95.5C 600.5,97.8333 600.5,100.167 600.5,102.5C 597.833,102.5 595.167,102.5 592.5,102.5C 592.5,100.167 592.5,97.8333 592.5,95.5 Z"/></g>
<g><path style="opacity:1" fill="#101015" d="M 608.5,102.5 C 606.167,102.5 603.833,102.5 601.5,102.5C 601.5,100.167 601.5,97.8333 601.5,95.5C 603.833,95.5 606.167,95.5 608.5,95.5C 608.5,97.8333 608.5,100.167 608.5,102.5 Z"/></g>
<g><path style="opacity:1" fill="#1c1f28" d="M 617.5,102.5 C 615.167,103.833 612.833,103.833 610.5,102.5C 610.5,100.167 610.5,97.8333 610.5,95.5C 612.833,95.5 615.167,95.5 617.5,95.5C 617.5,97.8333 617.5,100.167 617.5,102.5 Z"/></g>
<g><path style="opacity:1" fill="#2f3747" d="M 635.5,96.5 C 635.5,98.8333 635.5,101.167 635.5,103.5C 633.167,103.5 630.833,103.5 628.5,103.5C 628.5,101.167 628.5,98.8333 628.5,96.5C 630.833,96.5 633.167,96.5 635.5,96.5 Z"/></g>
<g><path style="opacity:1" fill="#373e50" d="M 637.5,96.5 C 641.833,96.5 646.167,96.5 650.5,96.5C 651.468,98.6074 651.802,100.941 651.5,103.5C 646.5,103.5 641.5,103.5 636.5,103.5C 636.198,100.941 636.532,98.6074 637.5,96.5 Z"/></g>
<g><path style="opacity:1" fill="#130c0c" d="M 571.5,93.5 C 573.044,96.248 573.71,99.248 573.5,102.5C 571.585,102.784 569.919,102.451 568.5,101.5C 569.038,99.8828 569.371,98.2161 569.5,96.5C 570.477,93.7131 570.81,90.7131 570.5,87.5C 567.682,87.6574 565.682,88.9908 564.5,91.5C 564.5,89.8333 564.5,88.1667 564.5,86.5C 566.833,86.5 569.167,86.5 571.5,86.5C 571.5,88.8333 571.5,91.1667 571.5,93.5 Z"/></g>
<g><path style="opacity:1" fill="#1d2431" d="M 626.5,102.5 C 624.167,103.833 621.833,103.833 619.5,102.5C 619.5,100.5 619.5,98.5 619.5,96.5C 621.833,96.5 624.167,96.5 626.5,96.5C 626.5,98.5 626.5,100.5 626.5,102.5 Z"/></g>
<g><path style="opacity:1" fill="#9d3e20" d="M 707.5,95.5 C 706.66,97.8525 705.326,99.8525 703.5,101.5C 703.845,98.8021 705.178,96.8021 707.5,95.5 Z"/></g>
<g><path style="opacity:1" fill="#faddc8" d="M 541.5,96.5 C 541.167,97.8333 540.833,99.1667 540.5,100.5C 539.674,105.316 539.174,110.316 539,115.5C 537.605,116.815 536.605,116.481 536,114.5C 535.333,109.167 535.333,103.833 536,98.5C 536.632,96.4687 537.799,94.802 539.5,93.5C 540.919,94.0047 541.585,95.0047 541.5,96.5 Z"/></g>
<g><path style="opacity:1" fill="#eea083" d="M 545.5,91.5 C 547.527,91.3379 549.527,91.5045 551.5,92C 552.056,92.3826 552.389,92.8826 552.5,93.5C 551.422,96.4021 550.756,99.4021 550.5,102.5C 550.5,102.833 550.5,103.167 550.5,103.5C 550.011,99.9484 549.677,96.2817 549.5,92.5C 548.5,93.1667 547.5,93.8333 546.5,94.5C 543.956,101.017 542.289,107.684 541.5,114.5C 540.928,107.23 541.928,100.23 544.5,93.5C 544.833,92.8333 545.167,92.1667 545.5,91.5 Z"/></g>
<g><path style="opacity:1" fill="#060608" d="M 728.5,112.5 C 726,115.494 724,118.827 722.5,122.5C 720.75,123.659 719.75,125.326 719.5,127.5C 717,130.494 715,133.827 713.5,137.5C 711,140.494 709,143.827 707.5,147.5C 700.517,143.528 693.517,139.528 686.5,135.5C 688.554,130.391 690.887,125.391 693.5,120.5C 696,117.506 698,114.173 699.5,110.5C 702.433,106.292 705.6,102.292 709,98.5C 715.394,101.613 721.561,105.113 727.5,109C 728.337,110.011 728.67,111.178 728.5,112.5 Z"/></g>
<g><path style="opacity:1" fill="#e7e4e1" d="M 728.5,112.5 C 728.67,111.178 728.337,110.011 727.5,109C 721.561,105.113 715.394,101.613 709,98.5C 705.6,102.292 702.433,106.292 699.5,110.5C 700.833,107.5 702.167,104.5 703.5,101.5C 705.326,99.8525 706.66,97.8525 707.5,95.5C 709.402,94.4891 711.402,94.3224 713.5,95C 718.666,97.7484 723.666,100.748 728.5,104C 732.439,106.972 732.439,109.806 728.5,112.5 Z"/></g>
<g><path style="opacity:1" fill="#050406" d="M 527.5,103.5 C 527.5,105.833 527.5,108.167 527.5,110.5C 526.5,110.5 525.5,110.5 524.5,110.5C 524.5,108.167 524.5,105.833 524.5,103.5C 525.5,103.5 526.5,103.5 527.5,103.5 Z"/></g>
<g><path style="opacity:1" fill="#101219" d="M 586.5,111.5 C 583.941,111.802 581.607,111.468 579.5,110.5C 579.5,108.5 579.5,106.5 579.5,104.5C 581.833,104.5 584.167,104.5 586.5,104.5C 586.5,106.833 586.5,109.167 586.5,111.5 Z"/></g>
<g><path style="opacity:1" fill="#893c2f" d="M 529.5,93.5 C 532.038,93.831 533.704,95.1643 534.5,97.5C 533.962,99.1172 533.629,100.784 533.5,102.5C 533.822,108.358 533.489,114.025 532.5,119.5C 532.672,118.508 532.338,117.842 531.5,117.5C 529.319,111.001 529.652,104.501 532.5,98C 532.252,96.2509 531.252,95.4176 529.5,95.5C 529.5,94.8333 529.5,94.1667 529.5,93.5 Z"/></g>
<g><path style="opacity:1" fill="#151a26" d="M 595.5,111.5 C 593.167,111.5 590.833,111.5 588.5,111.5C 588.5,109.167 588.5,106.833 588.5,104.5C 590.833,104.5 593.167,104.5 595.5,104.5C 595.5,106.833 595.5,109.167 595.5,111.5 Z"/></g>
<g><path style="opacity:1" fill="#1a202b" d="M 604.5,104.5 C 604.5,106.833 604.5,109.167 604.5,111.5C 602.167,111.5 599.833,111.5 597.5,111.5C 597.5,109.167 597.5,106.833 597.5,104.5C 599.833,104.5 602.167,104.5 604.5,104.5 Z"/></g>
<g><path style="opacity:1" fill="#202635" d="M 622.5,111.5 C 620.167,111.5 617.833,111.5 615.5,111.5C 614.532,109.393 614.198,107.059 614.5,104.5C 617.167,104.5 619.833,104.5 622.5,104.5C 622.5,106.833 622.5,109.167 622.5,111.5 Z"/></g>
<g><path style="opacity:1" fill="#232a3a" d="M 630.5,104.5 C 630.5,106.833 630.5,109.167 630.5,111.5C 628.167,111.5 625.833,111.5 623.5,111.5C 623.5,109.167 623.5,106.833 623.5,104.5C 625.833,104.5 628.167,104.5 630.5,104.5 Z"/></g>
<g><path style="opacity:1" fill="#19191f" d="M 570.5,104.5 C 573.167,104.5 575.833,104.5 578.5,104.5C 578.5,106.5 578.5,108.5 578.5,110.5C 576.393,111.468 574.059,111.802 571.5,111.5C 570.532,109.393 570.198,107.059 570.5,104.5 Z"/></g>
<g><path style="opacity:1" fill="#1f2534" d="M 605.5,104.5 C 608.167,104.5 610.833,104.5 613.5,104.5C 613.5,106.833 613.5,109.167 613.5,111.5C 610.833,111.5 608.167,111.5 605.5,111.5C 605.5,109.167 605.5,106.833 605.5,104.5 Z"/></g>
<g><path style="opacity:1" fill="#c6c0c5" d="M 524.5,97.5 C 524.5,99.1667 524.5,100.833 524.5,102.5C 525.833,102.5 527.167,102.5 528.5,102.5C 528.5,102.833 528.5,103.167 528.5,103.5C 528.167,103.5 527.833,103.5 527.5,103.5C 526.5,103.5 525.5,103.5 524.5,103.5C 524.5,105.833 524.5,108.167 524.5,110.5C 524.5,111.167 524.5,111.833 524.5,112.5C 524.5,114.833 524.5,117.167 524.5,119.5C 523.71,118.391 523.21,117.058 523,115.5C 522.506,117.134 522.34,118.801 522.5,120.5C 520.379,120.675 518.379,120.341 516.5,119.5C 516.5,112.833 516.5,106.167 516.5,99.5C 517.222,99.0825 517.722,98.4158 518,97.5C 518.928,100.035 520.762,101.035 523.5,100.5C 523.263,99.209 523.596,98.209 524.5,97.5 Z"/></g>
<g><path style="opacity:1" fill="#544441" d="M 527.5,103.5 C 527.833,103.5 528.167,103.5 528.5,103.5C 528.5,106.5 528.5,109.5 528.5,112.5C 527.167,112.5 525.833,112.5 524.5,112.5C 524.5,111.833 524.5,111.167 524.5,110.5C 525.5,110.5 526.5,110.5 527.5,110.5C 527.5,108.167 527.5,105.833 527.5,103.5 Z"/></g>
<g><path style="opacity:1" fill="#8a8c94" d="M 630.5,104.5 C 631.167,104.5 631.833,104.5 632.5,104.5C 632.5,106.833 632.5,109.167 632.5,111.5C 638.5,111.5 644.5,111.5 650.5,111.5C 650.5,109.5 650.5,107.5 650.5,105.5C 648.265,105.795 646.265,105.461 644.5,104.5C 646.833,104.5 649.167,104.5 651.5,104.5C 651.5,107.167 651.5,109.833 651.5,112.5C 644.978,112.177 638.645,112.51 632.5,113.5C 630.167,113.5 627.833,113.5 625.5,113.5C 625.5,115.833 625.5,118.167 625.5,120.5C 625.167,120.5 624.833,120.5 624.5,120.5C 624.5,118.167 624.5,115.833 624.5,113.5C 621.833,113.5 619.167,113.5 616.5,113.5C 616.5,112.833 616.167,112.5 615.5,112.5C 615.5,112.167 615.5,111.833 615.5,111.5C 617.833,111.5 620.167,111.5 622.5,111.5C 622.833,112.833 623.167,112.833 623.5,111.5C 625.833,111.5 628.167,111.5 630.5,111.5C 630.5,109.167 630.5,106.833 630.5,104.5 Z"/></g>
<g><path style="opacity:1" fill="#2e3648" d="M 632.5,104.5 C 636.5,104.5 640.5,104.5 644.5,104.5C 646.265,105.461 648.265,105.795 650.5,105.5C 650.5,107.5 650.5,109.5 650.5,111.5C 644.5,111.5 638.5,111.5 632.5,111.5C 632.5,109.167 632.5,106.833 632.5,104.5 Z"/></g>
<g><path style="opacity:1" fill="#080505" d="M 524.5,112.5 C 525.833,112.5 527.167,112.5 528.5,112.5C 528.5,114.833 528.5,117.167 528.5,119.5C 527.167,119.5 525.833,119.5 524.5,119.5C 524.5,117.167 524.5,114.833 524.5,112.5 Z"/></g>
<g><path style="opacity:1" fill="#b8aea8" d="M 728.5,112.5 C 727.502,116.505 725.502,119.839 722.5,122.5C 724,118.827 726,115.494 728.5,112.5 Z"/></g>
<g><path style="opacity:1" fill="#1b2431" d="M 616.5,113.5 C 619.167,113.5 621.833,113.5 624.5,113.5C 624.5,115.833 624.5,118.167 624.5,120.5C 621.833,120.5 619.167,120.5 616.5,120.5C 616.5,118.167 616.5,115.833 616.5,113.5 Z"/></g>
<g><path style="opacity:1" fill="#313749" d="M 643.5,120.5 C 643.5,118.167 643.5,115.833 643.5,113.5C 645.833,113.5 648.167,113.5 650.5,113.5C 650.5,115.833 650.5,118.167 650.5,120.5C 648.167,120.5 645.833,120.5 643.5,120.5 Z"/></g>
<g><path style="opacity:1" fill="#bdb5b4" d="M 699.5,110.5 C 698,114.173 696,117.506 693.5,120.5C 694.498,116.495 696.498,113.161 699.5,110.5 Z"/></g>
<g><path style="opacity:1" fill="#29313e" d="M 632.5,113.5 C 633.468,115.607 633.802,117.941 633.5,120.5C 630.833,120.5 628.167,120.5 625.5,120.5C 625.5,118.167 625.5,115.833 625.5,113.5C 627.833,113.5 630.167,113.5 632.5,113.5 Z"/></g>
<g><path style="opacity:1" fill="#212631" d="M 641.5,120.5 C 639.167,120.5 636.833,120.5 634.5,120.5C 634.5,118.167 634.5,115.833 634.5,113.5C 636.833,113.5 639.167,113.5 641.5,113.5C 641.5,115.833 641.5,118.167 641.5,120.5 Z"/></g>
<g><path style="opacity:1" fill="#d2886d" d="M 529.5,95.5 C 531.252,95.4176 532.252,96.2509 532.5,98C 529.652,104.501 529.319,111.001 531.5,117.5C 531.869,119.993 531.203,120.66 529.5,119.5C 529.167,119.5 528.833,119.5 528.5,119.5C 528.5,117.167 528.5,114.833 528.5,112.5C 528.5,109.5 528.5,106.5 528.5,103.5C 528.5,103.167 528.5,102.833 528.5,102.5C 528.5,101.167 528.5,99.8333 528.5,98.5C 529.404,97.791 529.737,96.791 529.5,95.5 Z"/></g>
<g><path style="opacity:1" fill="#10121b" d="M 572.5,112.5 C 583.167,112.5 593.833,112.5 604.5,112.5C 604.5,114.833 604.5,117.167 604.5,119.5C 593.5,119.5 582.5,119.5 571.5,119.5C 571.5,118.5 571.5,117.5 571.5,116.5C 571.833,115.167 572.167,113.833 572.5,112.5 Z"/></g>
<g><path style="opacity:1" fill="#1b212d" d="M 615.5,112.5 C 615.5,115.167 615.5,117.833 615.5,120.5C 612.167,120.5 608.833,120.5 605.5,120.5C 605.5,117.833 605.5,115.167 605.5,112.5C 608.833,112.5 612.167,112.5 615.5,112.5 Z"/></g>
<g><path style="opacity:1" fill="#fad4ba" d="M 550.5,103.5 C 550.279,106.279 550.612,108.946 551.5,111.5C 551.461,112.756 551.961,113.756 553,114.5C 555.019,111.39 557.519,108.724 560.5,106.5C 562.717,103.932 563.884,100.932 564,97.5C 565.022,98.354 565.855,99.354 566.5,100.5C 563.739,105.479 561.405,110.646 559.5,116C 560.551,119.839 559.384,123.005 556,125.5C 554.674,124.201 553.34,122.868 552,121.5C 551.517,122.448 551.351,123.448 551.5,124.5C 550.5,124.5 549.5,124.5 548.5,124.5C 546.919,122.914 544.919,121.914 542.5,121.5C 541.526,119.257 541.192,116.924 541.5,114.5C 542.289,107.684 543.956,101.017 546.5,94.5C 547.5,93.8333 548.5,93.1667 549.5,92.5C 549.677,96.2817 550.011,99.9484 550.5,103.5 Z"/></g>
<g><path style="opacity:1" fill="#171112" d="M 557.5,103.5 C 556.32,106.54 554.653,109.206 552.5,111.5C 553.265,108.904 553.599,106.237 553.5,103.5C 554.833,103.5 556.167,103.5 557.5,103.5 Z"/></g>
<g><path style="opacity:1" fill="#46474c" d="M 571.5,116.5 C 571.5,117.5 571.5,118.5 571.5,119.5C 582.5,119.5 593.5,119.5 604.5,119.5C 604.5,119.833 604.5,120.167 604.5,120.5C 593.167,120.5 581.833,120.5 570.5,120.5C 570.5,119.5 570.5,118.5 570.5,117.5C 570.5,116.833 570.833,116.5 571.5,116.5 Z"/></g>
<g><path style="opacity:1" fill="#b7b1b2" d="M 722.5,122.5 C 722.25,124.674 721.25,126.341 719.5,127.5C 719.75,125.326 720.75,123.659 722.5,122.5 Z"/></g>
<g><path style="opacity:1" fill="#d48466" d="M 533.5,102.5 C 534.704,111.314 535.538,120.314 536,129.5C 536.333,126.167 536.667,122.833 537,119.5C 537.308,120.308 537.808,120.975 538.5,121.5C 539.298,119.922 539.798,118.256 540,116.5C 540.09,129.222 538.257,141.556 534.5,153.5C 534.5,154.167 534.167,154.5 533.5,154.5C 532.833,154.5 532.5,154.167 532.5,153.5C 533.221,146.516 533.888,139.516 534.5,132.5C 533.347,128.226 532.68,123.893 532.5,119.5C 533.489,114.025 533.822,108.358 533.5,102.5 Z"/></g>
<g><path style="opacity:1" fill="#f9f9f7" d="M 655.5,67.5 C 656.75,67.5774 657.583,68.244 658,69.5C 658.667,100.5 658.667,131.5 658,162.5C 656.871,164.141 655.371,165.141 653.5,165.5C 649.833,165.5 646.167,165.5 642.5,165.5C 641.084,159.682 639.917,153.682 639,147.5C 635.778,143.495 631.611,141.495 626.5,141.5C 625.205,140.512 623.872,139.512 622.5,138.5C 621.791,137.596 620.791,137.263 619.5,137.5C 619.666,132.821 619.499,128.155 619,123.5C 618.5,123 618,122.5 617.5,122C 620.036,121.814 622.369,121.314 624.5,120.5C 624.833,120.5 625.167,120.5 625.5,120.5C 628.167,120.5 630.833,120.5 633.5,120.5C 633.833,120.5 634.167,120.5 634.5,120.5C 636.833,120.5 639.167,120.5 641.5,120.5C 642.167,120.5 642.833,120.5 643.5,120.5C 646.23,121.817 649.063,121.817 652,120.5C 652.828,104.994 652.661,89.6611 651.5,74.5C 649.833,74.5 648.167,74.5 646.5,74.5C 649.214,71.7846 652.214,69.4512 655.5,67.5 Z"/></g>
<g><path style="opacity:1" fill="#ddd9dc" d="M 524.5,119.5 C 525.657,121.215 526.324,123.215 526.5,125.5C 525.629,135.814 525.296,146.148 525.5,156.5C 525.5,158.167 525.5,159.833 525.5,161.5C 523.721,163.344 521.388,164.01 518.5,163.5C 517.542,163.047 516.708,162.381 516,161.5C 515.5,152.84 515.334,144.173 515.5,135.5C 516.488,130.36 516.821,125.026 516.5,119.5C 518.379,120.341 520.379,120.675 522.5,120.5C 522.34,118.801 522.506,117.134 523,115.5C 523.21,117.058 523.71,118.391 524.5,119.5 Z"/></g>
<g><path style="opacity:1" fill="#eaa588" d="M 536.5,92.5 C 538.199,92.3398 539.866,92.5065 541.5,93C 542.791,94.2917 542.791,95.4583 541.5,96.5C 541.585,95.0047 540.919,94.0047 539.5,93.5C 537.799,94.802 536.632,96.4687 536,98.5C 535.333,103.833 535.333,109.167 536,114.5C 536.605,116.481 537.605,116.815 539,115.5C 539.174,110.316 539.674,105.316 540.5,100.5C 540.181,105.363 540.514,110.03 541.5,114.5C 541.192,116.924 541.526,119.257 542.5,121.5C 544.919,121.914 546.919,122.914 548.5,124.5C 549.323,126.455 549.49,128.455 549,130.5C 548.586,130.043 548.086,129.709 547.5,129.5C 546.988,131.851 545.988,133.851 544.5,135.5C 543.603,140.167 542.27,144.667 540.5,149C 541.308,149.308 541.975,149.808 542.5,150.5C 539.675,151.255 537.009,152.255 534.5,153.5C 538.257,141.556 540.09,129.222 540,116.5C 539.798,118.256 539.298,119.922 538.5,121.5C 537.808,120.975 537.308,120.308 537,119.5C 536.667,122.833 536.333,126.167 536,129.5C 535.538,120.314 534.704,111.314 533.5,102.5C 533.629,100.784 533.962,99.1172 534.5,97.5C 534.893,95.7162 535.559,94.0495 536.5,92.5 Z"/></g>
<g><path style="opacity:1" fill="#bfafae" d="M 719.5,127.5 C 718.502,131.505 716.502,134.839 713.5,137.5C 715,133.827 717,130.494 719.5,127.5 Z"/></g>
<g><path style="opacity:1" fill="#3a2c30" d="M 466.5,128.5 C 462.818,128.335 459.152,128.501 455.5,129C 452.975,129.424 450.975,130.59 449.5,132.5C 442.943,137.202 440.776,143.536 443,151.5C 443.906,154.31 445.073,156.976 446.5,159.5C 445.833,159.5 445.167,159.5 444.5,159.5C 444.34,157.847 443.674,156.514 442.5,155.5C 442.672,154.508 442.338,153.842 441.5,153.5C 441.5,149.833 441.5,146.167 441.5,142.5C 444.024,133.311 450.024,127.978 459.5,126.5C 462.155,126.44 464.489,127.107 466.5,128.5 Z"/></g>
<g><path style="opacity:1" fill="#a98f88" d="M 693.5,120.5 C 690.887,125.391 688.554,130.391 686.5,135.5C 685.833,134.833 685.167,134.167 684.5,133.5C 686.501,130.832 688.001,127.832 689,124.5C 690.049,122.616 691.549,121.282 693.5,120.5 Z"/></g>
<g><path style="opacity:1" fill="#856a5e" d="M 466.5,128.5 C 472.863,131.2 477.197,135.866 479.5,142.5C 478.956,146.935 477.956,151.268 476.5,155.5C 479.41,138.241 472.077,130.407 454.5,132C 452.901,133.066 451.901,134.566 451.5,136.5C 450.675,137.386 449.675,137.719 448.5,137.5C 446.895,143.004 447.228,148.338 449.5,153.5C 449.631,154.376 449.298,155.043 448.5,155.5C 447.237,153.971 446.237,152.305 445.5,150.5C 443.236,144.461 444.569,139.461 449.5,135.5C 450.653,134.313 450.653,133.313 449.5,132.5C 450.975,130.59 452.975,129.424 455.5,129C 459.152,128.501 462.818,128.335 466.5,128.5 Z"/></g>
<g><path style="opacity:1" fill="#0a0706" d="M 476.5,155.5 C 474.712,158.615 472.046,160.615 468.5,161.5C 468.5,160.5 468.5,159.5 468.5,158.5C 465.5,158.5 462.5,158.5 459.5,158.5C 458.127,158.657 456.793,158.49 455.5,158C 453.886,155.873 451.886,154.373 449.5,153.5C 447.228,148.338 446.895,143.004 448.5,137.5C 449.675,137.719 450.675,137.386 451.5,136.5C 451.901,134.566 452.901,133.066 454.5,132C 472.077,130.407 479.41,138.241 476.5,155.5 Z"/></g>
<g><path style="opacity:1" fill="#f6be9f" d="M 569.5,96.5 C 569.371,98.2161 569.038,99.8828 568.5,101.5C 567.662,101.842 567.328,102.508 567.5,103.5C 565.94,105.954 564.94,108.62 564.5,111.5C 566.167,111.5 567.833,111.5 569.5,111.5C 569.5,109.167 569.5,106.833 569.5,104.5C 569.833,103.167 570.167,103.167 570.5,104.5C 570.198,107.059 570.532,109.393 571.5,111.5C 571.5,112.167 571.833,112.5 572.5,112.5C 572.167,113.833 571.833,115.167 571.5,116.5C 570.833,116.5 570.5,116.833 570.5,117.5C 569.883,117.389 569.383,117.056 569,116.5C 568.915,123.555 566.915,129.888 563,135.5C 563.167,129.491 563.834,123.491 565,117.5C 565.637,115.697 566.803,114.364 568.5,113.5C 568.043,112.702 567.376,112.369 566.5,112.5C 565.5,112.5 564.5,112.5 563.5,112.5C 561.76,117.26 561.094,122.26 561.5,127.5C 561.167,130.167 560.833,132.833 560.5,135.5C 559.022,135.238 557.689,135.571 556.5,136.5C 557.383,137.548 558.05,138.715 558.5,140C 554.349,143.954 552.015,148.787 551.5,154.5C 549.595,156.049 549.261,157.882 550.5,160C 547.047,163.743 544.547,167.91 543,172.5C 534.69,185.293 532.19,183.96 535.5,168.5C 535.43,163.716 534.763,159.049 533.5,154.5C 534.167,154.5 534.5,154.167 534.5,153.5C 537.009,152.255 539.675,151.255 542.5,150.5C 541.975,149.808 541.308,149.308 540.5,149C 542.27,144.667 543.603,140.167 544.5,135.5C 545.988,133.851 546.988,131.851 547.5,129.5C 548.086,129.709 548.586,130.043 549,130.5C 549.49,128.455 549.323,126.455 548.5,124.5C 549.5,124.5 550.5,124.5 551.5,124.5C 551.351,123.448 551.517,122.448 552,121.5C 553.34,122.868 554.674,124.201 556,125.5C 559.384,123.005 560.551,119.839 559.5,116C 561.405,110.646 563.739,105.479 566.5,100.5C 565.855,99.354 565.022,98.354 564,97.5C 563.884,100.932 562.717,103.932 560.5,106.5C 557.519,108.724 555.019,111.39 553,114.5C 551.961,113.756 551.461,112.756 551.5,111.5C 551.833,111.5 552.167,111.5 552.5,111.5C 554.653,109.206 556.32,106.54 557.5,103.5C 557.5,103.167 557.5,102.833 557.5,102.5C 559.4,100.381 561.066,98.0472 562.5,95.5C 562.833,95.5 563.167,95.5 563.5,95.5C 564.807,94.8466 566.14,94.1799 567.5,93.5C 568.919,94.0047 569.585,95.0047 569.5,96.5 Z"/></g>
<g><path style="opacity:1" fill="#2f150f" d="M 566.5,112.5 C 563.339,117.071 561.672,122.071 561.5,127.5C 561.094,122.26 561.76,117.26 563.5,112.5C 564.5,112.5 565.5,112.5 566.5,112.5 Z"/></g>
<g><path style="opacity:1" fill="#1d1a19" d="M 567.5,103.5 C 568.167,103.833 568.833,104.167 569.5,104.5C 569.5,106.833 569.5,109.167 569.5,111.5C 567.833,111.5 566.167,111.5 564.5,111.5C 564.94,108.62 565.94,105.954 567.5,103.5 Z"/></g>
<g><path style="opacity:1" fill="#e6a183" d="M 566.5,112.5 C 567.376,112.369 568.043,112.702 568.5,113.5C 566.803,114.364 565.637,115.697 565,117.5C 563.834,123.491 563.167,129.491 563,135.5C 566.915,129.888 568.915,123.555 569,116.5C 569.383,117.056 569.883,117.389 570.5,117.5C 570.5,118.5 570.5,119.5 570.5,120.5C 570.5,121.5 570.5,122.5 570.5,123.5C 568.444,128.874 567.111,134.541 566.5,140.5C 564.338,144.824 562.171,149.158 560,153.5C 557.492,154.036 555.659,155.369 554.5,157.5C 552.5,157.5 551.5,156.5 551.5,154.5C 552.015,148.787 554.349,143.954 558.5,140C 558.05,138.715 557.383,137.548 556.5,136.5C 557.689,135.571 559.022,135.238 560.5,135.5C 560.833,132.833 561.167,130.167 561.5,127.5C 561.672,122.071 563.339,117.071 566.5,112.5 Z"/></g>
<g><path style="opacity:1" fill="#f0f0ed" d="M 615.5,112.5 C 616.167,112.5 616.5,112.833 616.5,113.5C 616.5,115.833 616.5,118.167 616.5,120.5C 619.167,120.5 621.833,120.5 624.5,120.5C 622.369,121.314 620.036,121.814 617.5,122C 618,122.5 618.5,123 619,123.5C 619.499,128.155 619.666,132.821 619.5,137.5C 620.791,137.263 621.791,137.596 622.5,138.5C 620.833,138.5 619.167,138.5 617.5,138.5C 616.833,138.833 616.167,139.167 615.5,139.5C 613.693,138.385 611.693,137.719 609.5,137.5C 608.274,137.52 607.274,137.853 606.5,138.5C 605.89,139.391 605.557,140.391 605.5,141.5C 604.839,142.718 604.172,144.051 603.5,145.5C 602.143,143.435 600.81,141.435 599.5,139.5C 598.147,137.262 596.147,135.929 593.5,135.5C 592.833,135.5 592.5,135.833 592.5,136.5C 591.044,141.934 590.21,147.6 590,153.5C 588.47,151.774 587.47,149.774 587,147.5C 586.333,151.5 585.667,151.5 585,147.5C 584,148.833 583,148.833 582,147.5C 581.727,145.899 581.227,144.399 580.5,143C 577.993,142.907 575.826,142.074 574,140.5C 572.602,141.051 571.268,141.384 570,141.5C 569.964,135.513 570.131,129.513 570.5,123.5C 570.5,122.5 570.5,121.5 570.5,120.5C 581.833,120.5 593.167,120.5 604.5,120.5C 604.833,120.5 605.167,120.5 605.5,120.5C 608.833,120.5 612.167,120.5 615.5,120.5C 615.5,117.833 615.5,115.167 615.5,112.5 Z"/></g>
<g><path style="opacity:1" fill="#b7a9b2" d="M 524.5,119.5 C 525.833,119.5 527.167,119.5 528.5,119.5C 528.833,119.5 529.167,119.5 529.5,119.5C 529.77,131.204 529.436,142.871 528.5,154.5C 527.778,155.551 526.778,156.218 525.5,156.5C 525.296,146.148 525.629,135.814 526.5,125.5C 526.324,123.215 525.657,121.215 524.5,119.5 Z"/></g>
<g><path style="opacity:1" fill="#da8b7b" d="M 617.5,138.5 C 619.167,138.5 620.833,138.5 622.5,138.5C 623.872,139.512 625.205,140.512 626.5,141.5C 625.791,142.404 624.791,142.737 623.5,142.5C 623.222,147.339 623.888,152.006 625.5,156.5C 624.21,155.942 623.377,154.942 623,153.5C 621.841,148.185 620.008,143.185 617.5,138.5 Z"/></g>
<g><path style="opacity:1" fill="#ba705c" d="M 531.5,117.5 C 532.338,117.842 532.672,118.508 532.5,119.5C 532.68,123.893 533.347,128.226 534.5,132.5C 533.888,139.516 533.221,146.516 532.5,153.5C 531.167,153.833 529.833,154.167 528.5,154.5C 529.436,142.871 529.77,131.204 529.5,119.5C 531.203,120.66 531.869,119.993 531.5,117.5 Z"/></g>
<g><path style="opacity:1" fill="#ebe9e4" d="M 684.5,133.5 C 685.167,134.167 685.833,134.833 686.5,135.5C 693.517,139.528 700.517,143.528 707.5,147.5C 707.586,148.496 707.252,149.329 706.5,150C 704.866,150.494 703.199,150.66 701.5,150.5C 696.403,146.775 691.07,143.275 685.5,140C 684.577,137.959 684.244,135.792 684.5,133.5 Z"/></g>
<g><path style="opacity:1" fill="#b1a4a0" d="M 713.5,137.5 C 712.502,141.505 710.502,144.839 707.5,147.5C 709,143.827 711,140.494 713.5,137.5 Z"/></g>
<g><path style="opacity:1" fill="#5a211b" d="M 684.5,133.5 C 684.244,135.792 684.577,137.959 685.5,140C 691.07,143.275 696.403,146.775 701.5,150.5C 695.852,148.374 690.518,145.54 685.5,142C 682.058,139.344 681.724,136.51 684.5,133.5 Z"/></g>
<g><path style="opacity:1" fill="#967c7f" d="M 592.5,140.5 C 596.054,147.279 599.387,154.279 602.5,161.5C 601.5,160.833 600.5,160.167 599.5,159.5C 598.486,158.326 597.153,157.66 595.5,157.5C 594.833,157.5 594.5,157.167 594.5,156.5C 595.376,156.631 596.043,156.298 596.5,155.5C 594.66,150.636 593.327,145.636 592.5,140.5 Z"/></g>
<g><path style="opacity:1" fill="#b35946" d="M 606.5,138.5 C 607.5,138.5 608.5,138.5 609.5,138.5C 609.5,139.833 609.5,141.167 609.5,142.5C 610.5,142.5 611.5,142.5 612.5,142.5C 613.115,147.226 614.449,151.726 616.5,156C 616.316,157.376 615.649,158.209 614.5,158.5C 613.167,157.833 612.167,156.833 611.5,155.5C 612.124,155.083 612.457,154.416 612.5,153.5C 612.054,149.262 610.22,145.928 607,143.5C 606.617,144.056 606.117,144.389 605.5,144.5C 605.5,143.5 605.5,142.5 605.5,141.5C 605.557,140.391 605.89,139.391 606.5,138.5 Z"/></g>
<g><path style="opacity:1" fill="#e2e1e0" d="M 570.5,123.5 C 570.131,129.513 569.964,135.513 570,141.5C 571.268,141.384 572.602,141.051 574,140.5C 575.826,142.074 577.993,142.907 580.5,143C 581.227,144.399 581.727,145.899 582,147.5C 583,148.833 584,148.833 585,147.5C 585.667,151.5 586.333,151.5 587,147.5C 587.47,149.774 588.47,151.774 590,153.5C 590.21,147.6 591.044,141.934 592.5,136.5C 592.5,137.833 592.5,139.167 592.5,140.5C 593.327,145.636 594.66,150.636 596.5,155.5C 596.043,156.298 595.376,156.631 594.5,156.5C 592.62,156.229 591.287,156.896 590.5,158.5C 588.468,159.048 587.468,160.381 587.5,162.5C 583.316,162.851 579.316,163.518 575.5,164.5C 567.5,164.5 559.5,164.5 551.5,164.5C 551.688,161.794 552.688,159.461 554.5,157.5C 555.659,155.369 557.492,154.036 560,153.5C 562.171,149.158 564.338,144.824 566.5,140.5C 567.111,134.541 568.444,128.874 570.5,123.5 Z"/></g>
<g><path style="opacity:1" fill="#ee9f8e" d="M 593.5,135.5 C 596.147,135.929 598.147,137.262 599.5,139.5C 599.5,141.833 599.5,144.167 599.5,146.5C 600.833,146.5 602.167,146.5 603.5,146.5C 602.753,149.914 602.753,153.247 603.5,156.5C 601.451,153.058 599.617,149.391 598,145.5C 597.433,142.832 596.933,140.166 596.5,137.5C 594.821,137.715 593.821,137.048 593.5,135.5 Z"/></g>
<g><path style="opacity:1" fill="#f9d4c4" d="M 617.5,138.5 C 620.008,143.185 621.841,148.185 623,153.5C 623.377,154.942 624.21,155.942 625.5,156.5C 626.363,157.94 626.363,159.274 625.5,160.5C 626.263,161.719 627.263,162.719 628.5,163.5C 626.955,164.452 625.288,164.785 623.5,164.5C 623.994,160.473 622.494,157.473 619,155.5C 617.754,151.883 616.254,148.383 614.5,145C 615.775,143.092 616.108,141.259 615.5,139.5C 616.167,139.167 616.833,138.833 617.5,138.5 Z"/></g>
<g><path style="opacity:1" fill="#e1dad0" d="M 449.5,132.5 C 450.653,133.313 450.653,134.313 449.5,135.5C 444.569,139.461 443.236,144.461 445.5,150.5C 446.197,157.395 450.197,161.895 457.5,164C 461.738,164.308 465.738,164.475 469.5,164.5C 463.043,167.289 456.71,166.956 450.5,163.5C 449.5,161.833 448.167,160.5 446.5,159.5C 445.073,156.976 443.906,154.31 443,151.5C 440.776,143.536 442.943,137.202 449.5,132.5 Z"/></g>
<g><path style="opacity:1" fill="#a6948a" d="M 479.5,142.5 C 482.069,152.686 478.736,160.019 469.5,164.5C 465.738,164.475 461.738,164.308 457.5,164C 450.197,161.895 446.197,157.395 445.5,150.5C 446.237,152.305 447.237,153.971 448.5,155.5C 449.298,155.043 449.631,154.376 449.5,153.5C 451.886,154.373 453.886,155.873 455.5,158C 456.793,158.49 458.127,158.657 459.5,158.5C 461.631,159.314 463.964,159.814 466.5,160C 463.957,160.14 461.623,160.806 459.5,162C 460.5,162.333 461.5,162.667 462.5,163C 464.689,163.322 466.689,162.822 468.5,161.5C 472.046,160.615 474.712,158.615 476.5,155.5C 477.956,151.268 478.956,146.935 479.5,142.5 Z"/></g>
<g><path style="opacity:1" fill="#b86251" d="M 593.5,135.5 C 593.821,137.048 594.821,137.715 596.5,137.5C 596.933,140.166 597.433,142.832 598,145.5C 599.617,149.391 601.451,153.058 603.5,156.5C 605.17,159.175 606.836,161.841 608.5,164.5C 608.5,166.167 608.5,167.833 608.5,169.5C 608.5,172.167 608.5,174.833 608.5,177.5C 607.833,176.5 607.167,175.5 606.5,174.5C 607.141,169.431 605.808,165.097 602.5,161.5C 599.387,154.279 596.054,147.279 592.5,140.5C 592.5,139.167 592.5,137.833 592.5,136.5C 592.5,135.833 592.833,135.5 593.5,135.5 Z"/></g>
<g><path style="opacity:1" fill="#372d31" d="M 466.5,128.5 C 476.517,131.029 481.517,137.529 481.5,148C 481.613,152.156 480.613,155.989 478.5,159.5C 477.527,161.139 476.194,162.473 474.5,163.5C 473.833,163.5 473.5,163.833 473.5,164.5C 471.632,165.263 469.965,166.263 468.5,167.5C 466.833,167.5 465.167,167.5 463.5,167.5C 458.364,168.337 454.031,167.003 450.5,163.5C 456.71,166.956 463.043,167.289 469.5,164.5C 478.736,160.019 482.069,152.686 479.5,142.5C 477.197,135.866 472.863,131.2 466.5,128.5 Z"/></g>
<g><path style="opacity:1" fill="#55473f" d="M 459.5,158.5 C 462.5,158.5 465.5,158.5 468.5,158.5C 468.5,159.5 468.5,160.5 468.5,161.5C 466.689,162.822 464.689,163.322 462.5,163C 461.5,162.667 460.5,162.333 459.5,162C 461.623,160.806 463.957,160.14 466.5,160C 463.964,159.814 461.631,159.314 459.5,158.5 Z"/></g>
<g><path style="opacity:1" fill="#f1efea" d="M 478.5,159.5 C 482.464,162.963 486.298,166.63 490,170.5C 490.747,172.928 489.914,174.594 487.5,175.5C 484.792,172.791 481.792,170.458 478.5,168.5C 477.167,166.833 475.833,165.167 474.5,163.5C 476.194,162.473 477.527,161.139 478.5,159.5 Z"/></g>
<g><path style="opacity:1" fill="#a39ba3" d="M 590.5,158.5 C 591.026,160.23 592.026,161.564 593.5,162.5C 592.082,164.308 590.082,164.975 587.5,164.5C 583.5,164.5 579.5,164.5 575.5,164.5C 579.316,163.518 583.316,162.851 587.5,162.5C 587.468,160.381 588.468,159.048 590.5,158.5 Z"/></g>
<g><path style="opacity:1" fill="#b58f82" d="M 474.5,163.5 C 475.833,165.167 477.167,166.833 478.5,168.5C 476.589,167.925 474.922,166.925 473.5,165.5C 473.5,165.167 473.5,164.833 473.5,164.5C 473.5,163.833 473.833,163.5 474.5,163.5 Z"/></g>
<g><path style="opacity:1" fill="#a2421a" d="M 551.5,164.5 C 559.5,164.5 567.5,164.5 575.5,164.5C 579.5,164.5 583.5,164.5 587.5,164.5C 587.5,164.833 587.5,165.167 587.5,165.5C 574.842,166.111 562.176,166.444 549.5,166.5C 549.833,165.5 550.5,164.833 551.5,164.5 Z"/></g>
<g><path style="opacity:1" fill="#9b4a3c" d="M 599.5,175.5 C 597.086,173.66 595.419,171.327 594.5,168.5C 594.144,166.81 593.144,165.81 591.5,165.5C 590.167,165.5 588.833,165.5 587.5,165.5C 587.5,165.167 587.5,164.833 587.5,164.5C 590.082,164.975 592.082,164.308 593.5,162.5C 595.102,164.919 596.936,167.919 599,171.5C 599.49,172.793 599.657,174.127 599.5,175.5 Z"/></g>
<g><path style="opacity:1" fill="#391211" d="M 599.5,159.5 C 600.5,160.167 601.5,160.833 602.5,161.5C 605.808,165.097 607.141,169.431 606.5,174.5C 606.672,175.492 606.338,176.158 605.5,176.5C 604.833,176.5 604.5,176.167 604.5,175.5C 604.035,169.771 602.368,164.438 599.5,159.5 Z"/></g>
<g><path style="opacity:1" fill="#fe840a" d="M 587.5,165.5 C 589.106,173.066 591.606,180.399 595,187.5C 600.45,192.959 606.45,197.626 613,201.5C 616.681,209.236 620.348,216.903 624,224.5C 625.895,229.325 626.728,234.325 626.5,239.5C 597.833,239.5 569.167,239.5 540.5,239.5C 541.604,233.231 542.271,226.897 542.5,220.5C 542.1,214.346 542.767,208.346 544.5,202.5C 545.931,201.22 546.598,199.553 546.5,197.5C 547.525,197.103 547.692,196.437 547,195.5C 545.855,194.364 544.688,193.364 543.5,192.5C 542.989,183.213 544.989,174.547 549.5,166.5C 562.176,166.444 574.842,166.111 587.5,165.5 Z"/></g>
<g><path style="opacity:1" fill="#ea9e8c" d="M 594.5,156.5 C 594.5,157.167 594.833,157.5 595.5,157.5C 599.271,163.165 602.271,169.165 604.5,175.5C 604.5,176.167 604.833,176.5 605.5,176.5C 605.5,178.167 605.5,179.833 605.5,181.5C 604.325,181.719 603.325,181.386 602.5,180.5C 602.043,178.402 601.043,176.736 599.5,175.5C 599.657,174.127 599.49,172.793 599,171.5C 596.936,167.919 595.102,164.919 593.5,162.5C 592.026,161.564 591.026,160.23 590.5,158.5C 591.287,156.896 592.62,156.229 594.5,156.5 Z"/></g>
<g><path style="opacity:1" fill="#9c3930" d="M 595.5,157.5 C 597.153,157.66 598.486,158.326 599.5,159.5C 602.368,164.438 604.035,169.771 604.5,175.5C 602.271,169.165 599.271,163.165 595.5,157.5 Z"/></g>
<g><path style="opacity:1" fill="#ab3b13" d="M 642.5,165.5 C 646.167,165.5 649.833,165.5 653.5,165.5C 653.389,166.117 653.056,166.617 652.5,167C 649.183,167.498 645.85,167.665 642.5,167.5C 642.5,166.833 642.5,166.167 642.5,165.5 Z"/></g>
<g><path style="opacity:1" fill="#892b06" d="M 444.5,159.5 C 445.167,159.5 445.833,159.5 446.5,159.5C 448.167,160.5 449.5,161.833 450.5,163.5C 454.031,167.003 458.364,168.337 463.5,167.5C 463.158,168.338 462.492,168.672 461.5,168.5C 459.473,168.338 457.473,168.505 455.5,169C 456.308,169.308 456.975,169.808 457.5,170.5C 454.216,171.657 450.882,171.824 447.5,171C 446.197,167.972 444.53,165.139 442.5,162.5C 443.612,161.735 444.279,160.735 444.5,159.5 Z"/></g>
<g><path style="opacity:1" fill="#b6a8ac" d="M 478.5,168.5 C 481.792,170.458 484.792,172.791 487.5,175.5C 483.668,174.345 480.668,172.012 478.5,168.5 Z"/></g>
<g><path style="opacity:1" fill="#e59e7e" d="M 532.5,153.5 C 532.5,154.167 532.833,154.5 533.5,154.5C 534.763,159.049 535.43,163.716 535.5,168.5C 533.943,174.163 531.943,179.83 529.5,185.5C 528.391,185.443 527.391,185.11 526.5,184.5C 526.018,183.584 525.685,182.584 525.5,181.5C 526.873,177.277 527.54,172.944 527.5,168.5C 527.471,165.731 526.805,163.397 525.5,161.5C 525.5,159.833 525.5,158.167 525.5,156.5C 526.778,156.218 527.778,155.551 528.5,154.5C 529.833,154.167 531.167,153.833 532.5,153.5 Z"/></g>
<g><path style="opacity:1" fill="#f4bea8" d="M 606.5,138.5 C 607.274,137.853 608.274,137.52 609.5,137.5C 611.693,137.719 613.693,138.385 615.5,139.5C 616.108,141.259 615.775,143.092 614.5,145C 616.254,148.383 617.754,151.883 619,155.5C 622.494,157.473 623.994,160.473 623.5,164.5C 625.288,164.785 626.955,164.452 628.5,163.5C 627.263,162.719 626.263,161.719 625.5,160.5C 626.363,159.274 626.363,157.94 625.5,156.5C 623.888,152.006 623.222,147.339 623.5,142.5C 624.791,142.737 625.791,142.404 626.5,141.5C 631.611,141.495 635.778,143.495 639,147.5C 639.917,153.682 641.084,159.682 642.5,165.5C 642.5,166.167 642.5,166.833 642.5,167.5C 642.5,172.833 642.5,178.167 642.5,183.5C 641.673,178.349 641.173,173.016 641,167.5C 641.058,174.053 640.058,180.386 638,186.5C 636.535,187.369 635.369,186.869 634.5,185C 635.893,183.699 636.393,182.199 636,180.5C 634.89,182.037 633.39,182.703 631.5,182.5C 632.244,185.95 630.91,187.616 627.5,187.5C 627.318,189.591 627.652,191.591 628.5,193.5C 630.39,194.424 631.89,195.757 633,197.5C 633.945,201.494 634.778,205.494 635.5,209.5C 634.395,208.4 633.062,207.733 631.5,207.5C 629.596,207.262 628.262,206.262 627.5,204.5C 628.892,199.855 628.226,195.521 625.5,191.5C 624.795,185.534 622.462,180.367 618.5,176C 619.747,174.506 619.747,173.006 618.5,171.5C 614.378,171.514 611.878,169.514 611,165.5C 610.329,164.748 609.496,164.414 608.5,164.5C 606.836,161.841 605.17,159.175 603.5,156.5C 602.753,153.247 602.753,149.914 603.5,146.5C 602.167,146.5 600.833,146.5 599.5,146.5C 599.5,144.167 599.5,141.833 599.5,139.5C 600.81,141.435 602.143,143.435 603.5,145.5C 604.172,144.051 604.839,142.718 605.5,141.5C 605.5,142.5 605.5,143.5 605.5,144.5C 606.706,148.577 608.706,152.243 611.5,155.5C 610.883,155.611 610.383,155.944 610,156.5C 609.101,154.484 607.767,152.817 606,151.5C 605.766,157.392 608.266,161.392 613.5,163.5C 613.5,164.833 613.5,166.167 613.5,167.5C 616.641,168.092 618.974,167.092 620.5,164.5C 619.323,162.025 617.323,161.025 614.5,161.5C 614.5,160.5 614.5,159.5 614.5,158.5C 615.649,158.209 616.316,157.376 616.5,156C 614.449,151.726 613.115,147.226 612.5,142.5C 611.5,142.5 610.5,142.5 609.5,142.5C 609.5,141.167 609.5,139.833 609.5,138.5C 608.5,138.5 607.5,138.5 606.5,138.5 Z"/></g>
<g><path style="opacity:1" fill="#fbe3d4" d="M 611.5,155.5 C 612.167,156.833 613.167,157.833 614.5,158.5C 614.5,159.5 614.5,160.5 614.5,161.5C 617.323,161.025 619.323,162.025 620.5,164.5C 618.974,167.092 616.641,168.092 613.5,167.5C 613.5,166.167 613.5,164.833 613.5,163.5C 608.266,161.392 605.766,157.392 606,151.5C 607.767,152.817 609.101,154.484 610,156.5C 610.383,155.944 610.883,155.611 611.5,155.5 Z"/></g>
<g><path style="opacity:1" fill="#633031" d="M 611.5,155.5 C 608.706,152.243 606.706,148.577 605.5,144.5C 606.117,144.389 606.617,144.056 607,143.5C 610.22,145.928 612.054,149.262 612.5,153.5C 612.457,154.416 612.124,155.083 611.5,155.5 Z"/></g>
<g><path style="opacity:1" fill="#d0756a" d="M 630.5,143.5 C 631.83,144.832 633.497,145.665 635.5,146C 634.707,149.411 634.207,152.911 634,156.5C 631.437,152.584 630.27,148.25 630.5,143.5 Z"/></g>
<g><path style="opacity:1" fill="#bd7159" d="M 525.5,161.5 C 526.805,163.397 527.471,165.731 527.5,168.5C 527.54,172.944 526.873,177.277 525.5,181.5C 525.685,182.584 526.018,183.584 526.5,184.5C 524.565,183.85 522.565,183.517 520.5,183.5C 523.184,177.447 524.85,171.113 525.5,164.5C 522.941,164.802 520.607,164.468 518.5,163.5C 521.388,164.01 523.721,163.344 525.5,161.5 Z"/></g>
<g><path style="opacity:1" fill="#fb8109" d="M 463.5,167.5 C 465.167,167.5 466.833,167.5 468.5,167.5C 470.449,171.629 471.283,175.962 471,180.5C 469.818,182.357 468.151,183.357 466,183.5C 463.458,182.795 461.292,181.461 459.5,179.5C 457.155,175.471 457.822,171.804 461.5,168.5C 462.492,168.672 463.158,168.338 463.5,167.5 Z"/></g>
<g><path style="opacity:1" fill="#e45d05" d="M 441.5,142.5 C 441.5,146.167 441.5,149.833 441.5,153.5C 439.657,157.857 437.157,161.857 434,165.5C 433.333,169.833 433.333,174.167 434,178.5C 436.556,179.219 437.723,180.886 437.5,183.5C 438.833,183.5 440.167,183.5 441.5,183.5C 428.332,185.535 420.999,179.701 419.5,166C 419.747,161.674 421.247,157.841 424,154.5C 429.751,150.375 435.585,146.375 441.5,142.5 Z"/></g>
<g><path style="opacity:1" fill="#9f3103" d="M 442.5,155.5 C 443.674,156.514 444.34,157.847 444.5,159.5C 444.279,160.735 443.612,161.735 442.5,162.5C 444.53,165.139 446.197,167.972 447.5,171C 450.882,171.824 454.216,171.657 457.5,170.5C 456.975,169.808 456.308,169.308 455.5,169C 457.473,168.505 459.473,168.338 461.5,168.5C 457.822,171.804 457.155,175.471 459.5,179.5C 459.703,181.044 460.37,182.378 461.5,183.5C 459.54,184.519 457.54,184.519 455.5,183.5C 454.901,181.066 453.401,179.399 451,178.5C 449.269,179.741 447.436,180.741 445.5,181.5C 444.167,181.5 442.833,181.5 441.5,181.5C 439.745,177.738 438.745,173.738 438.5,169.5C 441.018,165.056 442.351,160.39 442.5,155.5 Z"/></g>
<g><path style="opacity:1" fill="#d34f05" d="M 473.5,164.5 C 473.5,164.833 473.5,165.167 473.5,165.5C 476.262,171.781 475.762,177.781 472,183.5C 467.717,187.588 462.884,188.421 457.5,186C 456.619,185.292 455.953,184.458 455.5,183.5C 457.54,184.519 459.54,184.519 461.5,183.5C 460.37,182.378 459.703,181.044 459.5,179.5C 461.292,181.461 463.458,182.795 466,183.5C 468.151,183.357 469.818,182.357 471,180.5C 471.283,175.962 470.449,171.629 468.5,167.5C 469.965,166.263 471.632,165.263 473.5,164.5 Z"/></g>
<g><path style="opacity:1" fill="#e7ac91" d="M 551.5,154.5 C 551.5,156.5 552.5,157.5 554.5,157.5C 552.688,159.461 551.688,161.794 551.5,164.5C 550.5,164.833 549.833,165.5 549.5,166.5C 544.989,174.547 542.989,183.213 543.5,192.5C 539.112,189.639 534.446,187.306 529.5,185.5C 531.943,179.83 533.943,174.163 535.5,168.5C 532.19,183.96 534.69,185.293 543,172.5C 544.547,167.91 547.047,163.743 550.5,160C 549.261,157.882 549.595,156.049 551.5,154.5 Z"/></g>
<g><path style="opacity:1" fill="#c44403" d="M 441.5,153.5 C 442.338,153.842 442.672,154.508 442.5,155.5C 442.351,160.39 441.018,165.056 438.5,169.5C 438.745,173.738 439.745,177.738 441.5,181.5C 442.833,181.5 444.167,181.5 445.5,181.5C 444.486,182.674 443.153,183.34 441.5,183.5C 440.167,183.5 438.833,183.5 437.5,183.5C 437.723,180.886 436.556,179.219 434,178.5C 433.333,174.167 433.333,169.833 434,165.5C 437.157,161.857 439.657,157.857 441.5,153.5 Z"/></g>
<g><path style="opacity:1" fill="#81280b" d="M 594.5,168.5 C 595.419,171.327 597.086,173.66 599.5,175.5C 599.46,178.425 600.293,181.091 602,183.5C 604.09,185.416 605.923,187.416 607.5,189.5C 605.833,189.5 604.167,189.5 602.5,189.5C 600.617,184.733 598.451,180.066 596,175.5C 595.023,173.26 594.523,170.927 594.5,168.5 Z"/></g>
<g><path style="opacity:1" fill="#cc8167" d="M 608.5,169.5 C 612.419,171.55 614.252,174.883 614,179.5C 616.46,180.755 617.627,182.755 617.5,185.5C 620.156,187.424 622.823,189.424 625.5,191.5C 628.226,195.521 628.892,199.855 627.5,204.5C 624.065,202.19 622.565,198.856 623,194.5C 621.143,192.482 618.976,190.815 616.5,189.5C 614.306,185.09 611.639,181.09 608.5,177.5C 608.5,174.833 608.5,172.167 608.5,169.5 Z"/></g>
<g><path style="opacity:1" fill="#e4a288" d="M 608.5,164.5 C 609.496,164.414 610.329,164.748 611,165.5C 611.878,169.514 614.378,171.514 618.5,171.5C 619.747,173.006 619.747,174.506 618.5,176C 622.462,180.367 624.795,185.534 625.5,191.5C 622.823,189.424 620.156,187.424 617.5,185.5C 617.627,182.755 616.46,180.755 614,179.5C 614.252,174.883 612.419,171.55 608.5,169.5C 608.5,167.833 608.5,166.167 608.5,164.5 Z"/></g>
<g><path style="opacity:1" fill="#52527b" d="M 520.5,183.5 C 522.565,183.517 524.565,183.85 526.5,184.5C 527.391,185.11 528.391,185.443 529.5,185.5C 534.446,187.306 539.112,189.639 543.5,192.5C 544.688,193.364 545.855,194.364 547,195.5C 547.692,196.437 547.525,197.103 546.5,197.5C 538.241,191.964 529.241,187.964 519.5,185.5C 519.328,184.508 519.662,183.842 520.5,183.5 Z"/></g>
<g><path style="opacity:1" fill="#e7e8ef" d="M 519.5,185.5 C 529.241,187.964 538.241,191.964 546.5,197.5C 546.598,199.553 545.931,201.22 544.5,202.5C 543.71,201.206 542.71,200.039 541.5,199C 535.341,196.004 529.008,193.504 522.5,191.5C 520.565,190.85 518.565,190.517 516.5,190.5C 517.263,188.632 518.263,186.965 519.5,185.5 Z"/></g>
<g><path style="opacity:1" fill="#da5404" d="M 587.5,165.5 C 588.833,165.5 590.167,165.5 591.5,165.5C 593.579,173.512 596.413,181.179 600,188.5C 605.381,192.877 611.048,196.877 617,200.5C 620.704,205.26 623.87,210.26 626.5,215.5C 626.752,219.327 628.085,222.66 630.5,225.5C 630.352,230.322 631.019,234.988 632.5,239.5C 630.5,239.5 628.5,239.5 626.5,239.5C 626.728,234.325 625.895,229.325 624,224.5C 620.348,216.903 616.681,209.236 613,201.5C 606.45,197.626 600.45,192.959 595,187.5C 591.606,180.399 589.106,173.066 587.5,165.5 Z"/></g>
<g><path style="opacity:1" fill="#4f5380" d="M 522.5,191.5 C 529.008,193.504 535.341,196.004 541.5,199C 542.71,200.039 543.71,201.206 544.5,202.5C 542.767,208.346 542.1,214.346 542.5,220.5C 540.331,226.52 539.331,232.853 539.5,239.5C 538.833,239.5 538.167,239.5 537.5,239.5C 537.933,231.337 539.266,223.337 541.5,215.5C 540.563,211.358 540.23,207.358 540.5,203.5C 538.679,215.606 536.345,227.606 533.5,239.5C 532.167,239.5 530.833,239.5 529.5,239.5C 533.576,227.12 536.243,214.453 537.5,201.5C 536.5,201.5 535.5,201.5 534.5,201.5C 534.473,207.278 533.64,212.944 532,218.5C 529.887,223.284 528.554,228.284 528,233.5C 526.579,235.405 525.412,237.405 524.5,239.5C 523.5,239.5 522.5,239.5 521.5,239.5C 524.713,228.337 527.88,217.004 531,205.5C 532.102,202.095 531.268,199.428 528.5,197.5C 525.68,207.415 523.18,217.415 521,227.5C 519.202,231.422 517.702,235.422 516.5,239.5C 515.167,239.5 513.833,239.5 512.5,239.5C 513.249,235.239 514.749,231.239 517,227.5C 519.002,217.824 521.168,208.157 523.5,198.5C 523.197,196.886 522.53,195.552 521.5,194.5C 522.552,194.649 523.552,194.483 524.5,194C 523.619,193.292 522.953,192.458 522.5,191.5 Z"/></g>
<g><path style="opacity:1" fill="#f8d1b8" d="M 642.5,183.5 C 646.586,197.342 652.586,210.342 660.5,222.5C 657.012,222.54 653.679,223.207 650.5,224.5C 649.127,224.657 647.793,224.49 646.5,224C 644.306,221.806 642.14,219.64 640,217.5C 639.248,214.321 637.748,211.654 635.5,209.5C 634.778,205.494 633.945,201.494 633,197.5C 631.89,195.757 630.39,194.424 628.5,193.5C 627.652,191.591 627.318,189.591 627.5,187.5C 630.91,187.616 632.244,185.95 631.5,182.5C 633.39,182.703 634.89,182.037 636,180.5C 636.393,182.199 635.893,183.699 634.5,185C 635.369,186.869 636.535,187.369 638,186.5C 640.058,180.386 641.058,174.053 641,167.5C 641.173,173.016 641.673,178.349 642.5,183.5 Z"/></g>
<g><path style="opacity:1" fill="#e5e4ed" d="M 521.5,194.5 C 522.53,195.552 523.197,196.886 523.5,198.5C 521.168,208.157 519.002,217.824 517,227.5C 514.749,231.239 513.249,235.239 512.5,239.5C 511.167,239.5 509.833,239.5 508.5,239.5C 508.461,238.417 508.127,237.417 507.5,236.5C 511.627,231.239 513.794,225.239 514,218.5C 516.454,210.443 518.954,202.443 521.5,194.5 Z"/></g>
<g><path style="opacity:1" fill="#912b03" d="M 591.5,165.5 C 593.144,165.81 594.144,166.81 594.5,168.5C 594.523,170.927 595.023,173.26 596,175.5C 598.451,180.066 600.617,184.733 602.5,189.5C 604.167,189.5 605.833,189.5 607.5,189.5C 609.027,189.427 610.027,190.094 610.5,191.5C 615.316,195.374 619.483,200.04 623,205.5C 625.257,208.438 626.424,211.771 626.5,215.5C 623.87,210.26 620.704,205.26 617,200.5C 611.048,196.877 605.381,192.877 600,188.5C 596.413,181.179 593.579,173.512 591.5,165.5 Z"/></g>
<g><path style="opacity:1" fill="#691c0a" d="M 610.5,191.5 C 613.918,192.629 616.751,194.629 619,197.5C 625.973,207.23 631.14,217.897 634.5,229.5C 634.205,231.735 634.539,233.735 635.5,235.5C 635.5,235.833 635.5,236.167 635.5,236.5C 635.5,237.167 635.5,237.833 635.5,238.5C 633.697,234.346 632.03,230.013 630.5,225.5C 628.085,222.66 626.752,219.327 626.5,215.5C 626.424,211.771 625.257,208.438 623,205.5C 619.483,200.04 615.316,195.374 610.5,191.5 Z"/></g>
<g><path style="opacity:1" fill="#e9e8ef" d="M 521.5,239.5 C 519.833,239.5 518.167,239.5 516.5,239.5C 517.702,235.422 519.202,231.422 521,227.5C 523.18,217.415 525.68,207.415 528.5,197.5C 531.268,199.428 532.102,202.095 531,205.5C 527.88,217.004 524.713,228.337 521.5,239.5 Z"/></g>
<g><path style="opacity:1" fill="#e2dde2" d="M 512.5,198.5 C 511.091,204.06 509.091,209.393 506.5,214.5C 505.566,213.432 505.232,212.099 505.5,210.5C 506.828,205.835 509.161,201.835 512.5,198.5 Z"/></g>
<g><path style="opacity:1" fill="#3b4065" d="M 516.5,190.5 C 518.565,190.517 520.565,190.85 522.5,191.5C 522.953,192.458 523.619,193.292 524.5,194C 523.552,194.483 522.552,194.649 521.5,194.5C 518.954,202.443 516.454,210.443 514,218.5C 513.794,225.239 511.627,231.239 507.5,236.5C 508.127,237.417 508.461,238.417 508.5,239.5C 507.167,239.5 505.833,239.5 504.5,239.5C 505.089,237.602 505.256,235.602 505,233.5C 509.453,228.143 511.453,222.143 511,215.5C 512.252,213.999 513.252,212.332 514,210.5C 514.157,205.718 515.324,201.218 517.5,197C 517.167,196.167 516.833,195.333 516.5,194.5C 513.614,199.766 511.781,205.433 511,211.5C 507.81,213.897 506.977,216.897 508.5,220.5C 508.332,222.171 507.665,223.504 506.5,224.5C 505.788,221.075 505.788,217.742 506.5,214.5C 509.091,209.393 511.091,204.06 512.5,198.5C 513.833,195.833 515.167,193.167 516.5,190.5 Z"/></g>
<g><path style="opacity:1" fill="#a5a2ba" d="M 505.5,210.5 C 505.232,212.099 505.566,213.432 506.5,214.5C 505.788,217.742 505.788,221.075 506.5,224.5C 505.883,224.611 505.383,224.944 505,225.5C 504.39,222.173 503.89,218.839 503.5,215.5C 503.402,213.447 504.069,211.78 505.5,210.5 Z"/></g>
<g><path style="opacity:1" fill="#915446" d="M 606.5,174.5 C 607.167,175.5 607.833,176.5 608.5,177.5C 611.639,181.09 614.306,185.09 616.5,189.5C 618.976,190.815 621.143,192.482 623,194.5C 622.565,198.856 624.065,202.19 627.5,204.5C 628.262,206.262 629.596,207.262 631.5,207.5C 632.216,210.283 632.883,213.116 633.5,216C 635.795,219.423 637.961,222.923 640,226.5C 641.011,227.337 642.178,227.67 643.5,227.5C 640.877,229.265 637.877,229.932 634.5,229.5C 631.14,217.897 625.973,207.23 619,197.5C 616.751,194.629 613.918,192.629 610.5,191.5C 610.027,190.094 609.027,189.427 607.5,189.5C 605.923,187.416 604.09,185.416 602,183.5C 600.293,181.091 599.46,178.425 599.5,175.5C 601.043,176.736 602.043,178.402 602.5,180.5C 603.325,181.386 604.325,181.719 605.5,181.5C 605.5,179.833 605.5,178.167 605.5,176.5C 606.338,176.158 606.672,175.492 606.5,174.5 Z"/></g>
<g><path style="opacity:1" fill="#d6d4e2" d="M 504.5,239.5 C 503.5,239.5 502.5,239.5 501.5,239.5C 501.511,237.983 502.177,236.816 503.5,236C 502.446,234.612 502.28,233.112 503,231.5C 504.705,229.423 505.872,227.09 506.5,224.5C 507.665,223.504 508.332,222.171 508.5,220.5C 506.977,216.897 507.81,213.897 511,211.5C 511.781,205.433 513.614,199.766 516.5,194.5C 516.833,195.333 517.167,196.167 517.5,197C 515.324,201.218 514.157,205.718 514,210.5C 513.252,212.332 512.252,213.999 511,215.5C 511.453,222.143 509.453,228.143 505,233.5C 505.256,235.602 505.089,237.602 504.5,239.5 Z"/></g>
<g><path style="opacity:1" fill="#dcdde9" d="M 537.5,239.5 C 536.167,239.5 534.833,239.5 533.5,239.5C 536.345,227.606 538.679,215.606 540.5,203.5C 540.23,207.358 540.563,211.358 541.5,215.5C 539.266,223.337 537.933,231.337 537.5,239.5 Z"/></g>
<g><path style="opacity:1" fill="#494764" d="M 503.5,215.5 C 503.89,218.839 504.39,222.173 505,225.5C 505.383,224.944 505.883,224.611 506.5,224.5C 505.872,227.09 504.705,229.423 503,231.5C 502.28,233.112 502.446,234.612 503.5,236C 502.177,236.816 501.511,237.983 501.5,239.5C 500.833,239.5 500.167,239.5 499.5,239.5C 501.481,231.574 502.814,223.574 503.5,215.5 Z"/></g>
<g><path style="opacity:1" fill="#dca083" d="M 631.5,207.5 C 633.062,207.733 634.395,208.4 635.5,209.5C 637.748,211.654 639.248,214.321 640,217.5C 642.14,219.64 644.306,221.806 646.5,224C 647.793,224.49 649.127,224.657 650.5,224.5C 648.157,225.344 645.824,226.344 643.5,227.5C 642.178,227.67 641.011,227.337 640,226.5C 637.961,222.923 635.795,219.423 633.5,216C 632.883,213.116 632.216,210.283 631.5,207.5 Z"/></g>
<g><path style="opacity:1" fill="#54567a" d="M 660.5,222.5 C 661.167,222.5 661.5,222.833 661.5,223.5C 653.86,227.138 645.86,229.972 637.5,232C 636.027,232.71 635.36,233.876 635.5,235.5C 634.539,233.735 634.205,231.735 634.5,229.5C 637.877,229.932 640.877,229.265 643.5,227.5C 645.824,226.344 648.157,225.344 650.5,224.5C 653.679,223.207 657.012,222.54 660.5,222.5 Z"/></g>
<g><path style="opacity:1" fill="#ebebf0" d="M 529.5,239.5 C 527.833,239.5 526.167,239.5 524.5,239.5C 525.412,237.405 526.579,235.405 528,233.5C 528.554,228.284 529.887,223.284 532,218.5C 533.64,212.944 534.473,207.278 534.5,201.5C 535.5,201.5 536.5,201.5 537.5,201.5C 536.243,214.453 533.576,227.12 529.5,239.5 Z"/></g>
<g><path style="opacity:1" fill="#daced4" d="M 542.5,220.5 C 542.271,226.897 541.604,233.231 540.5,239.5C 540.167,239.5 539.833,239.5 539.5,239.5C 539.331,232.853 540.331,226.52 542.5,220.5 Z"/></g>
<g><path style="opacity:1" fill="#e6e7ea" d="M 661.5,223.5 C 662.458,223.953 663.292,224.619 664,225.5C 664.883,229.602 666.383,233.435 668.5,237C 668.164,238.03 667.497,238.53 666.5,238.5C 665.559,236.534 664.559,234.534 663.5,232.5C 664.246,231.264 664.579,229.93 664.5,228.5C 662.143,228.337 659.81,228.503 657.5,229C 653.179,232.829 648.179,234.996 642.5,235.5C 640.194,235.993 637.861,236.326 635.5,236.5C 635.5,236.167 635.5,235.833 635.5,235.5C 635.36,233.876 636.027,232.71 637.5,232C 645.86,229.972 653.86,227.138 661.5,223.5 Z"/></g>
<g><path style="opacity:1" fill="#963a14" d="M 630.5,225.5 C 632.03,230.013 633.697,234.346 635.5,238.5C 639.5,238.5 643.5,238.5 647.5,238.5C 647.5,238.833 647.5,239.167 647.5,239.5C 642.5,239.5 637.5,239.5 632.5,239.5C 631.019,234.988 630.352,230.322 630.5,225.5 Z"/></g>
<g><path style="opacity:1" fill="#6d749f" d="M 666.5,238.5 C 665.5,238.5 664.5,238.5 663.5,238.5C 662.609,236.391 661.442,234.391 660,232.5C 659.021,234.32 657.521,235.487 655.5,236C 656.252,236.671 656.586,237.504 656.5,238.5C 653.833,238.5 651.167,238.5 648.5,238.5C 648.918,237.778 649.584,237.278 650.5,237C 647.937,235.921 645.271,235.421 642.5,235.5C 648.179,234.996 653.179,232.829 657.5,229C 659.81,228.503 662.143,228.337 664.5,228.5C 664.579,229.93 664.246,231.264 663.5,232.5C 664.559,234.534 665.559,236.534 666.5,238.5 Z"/></g>
<g><path style="opacity:1" fill="#2a345a" d="M 642.5,235.5 C 645.271,235.421 647.937,235.921 650.5,237C 649.584,237.278 648.918,237.778 648.5,238.5C 648.167,238.5 647.833,238.5 647.5,238.5C 643.5,238.5 639.5,238.5 635.5,238.5C 635.5,237.833 635.5,237.167 635.5,236.5C 637.861,236.326 640.194,235.993 642.5,235.5 Z"/></g>
<g><path style="opacity:1" fill="#f0f3f6" d="M 663.5,238.5 C 661.167,238.5 658.833,238.5 656.5,238.5C 656.586,237.504 656.252,236.671 655.5,236C 657.521,235.487 659.021,234.32 660,232.5C 661.442,234.391 662.609,236.391 663.5,238.5 Z"/></g>
</svg>
